<svg width="121" height="102" viewBox="0 0 121 102" fill="none" xmlns="http://www.w3.org/2000/svg">
<g clip-path="url(#clip0)">
<path d="M86.4998 11.1423C76.1631 11.0936 66.8723 15.6163 60.5 22.8211C54.1156 15.6163 44.8369 11.0936 34.5002 11.1423C15.0916 11.2277 -0.376956 27.2463 0.0121892 46.8368C0.377013 65.83 15.7483 81.1172 34.6583 81.1172C35.388 81.1172 36.1176 81.0929 36.8473 81.0441C52.6077 80.0566 68.4045 80.0566 84.1649 81.0441C84.8824 81.0929 85.6121 81.1172 86.3539 81.1172C105.264 81.1172 120.635 65.83 121 46.8368C121.377 27.2463 105.908 11.2277 86.4998 11.1423Z" fill="#9CFFFF"/>
<path d="M79.9451 0.914307C78.8871 0.97526 77.9507 1.63356 77.5373 2.60882C76.9292 4.07171 77.7075 5.77842 78.875 6.8512C80.0424 7.9118 81.5382 8.52133 82.888 9.32592C84.7122 10.3987 86.3539 11.886 87.2659 13.7999C88.178 15.7139 88.2753 18.0911 87.2051 19.9075C86.2079 21.602 84.396 22.626 82.6691 23.5525" stroke="#3F3D56" stroke-miterlimit="10"/>
<path d="M81.4774 2.07243C82.6527 2.07243 83.6055 1.6085 83.6055 1.03621C83.6055 0.463929 82.6527 0 81.4774 0C80.302 0 79.3492 0.463929 79.3492 1.03621C79.3492 1.6085 80.302 2.07243 81.4774 2.07243Z" fill="#FF0068"/>
<path d="M83.1799 8.89924C84.3552 8.89924 85.308 8.43531 85.308 7.86303C85.308 7.29074 84.3552 6.82681 83.1799 6.82681C82.0046 6.82681 81.0518 7.29074 81.0518 7.86303C81.0518 8.43531 82.0046 8.89924 83.1799 8.89924Z" fill="#FF0068"/>
<path d="M79.2884 9.99641C80.4638 9.99641 81.4166 9.53248 81.4166 8.96019C81.4166 8.38791 80.4638 7.92398 79.2884 7.92398C78.1131 7.92398 77.1603 8.38791 77.1603 8.96019C77.1603 9.53248 78.1131 9.99641 79.2884 9.99641Z" fill="#FF0068"/>
<path d="M85.3688 15.7261C86.5441 15.7261 87.4969 15.2622 87.4969 14.6899C87.4969 14.1176 86.5441 13.6537 85.3688 13.6537C84.1935 13.6537 83.2407 14.1176 83.2407 14.6899C83.2407 15.2622 84.1935 15.7261 85.3688 15.7261Z" fill="#FF0068"/>
<path d="M89.6252 15.7261C90.8005 15.7261 91.7533 15.2622 91.7533 14.6899C91.7533 14.1176 90.8005 13.6537 89.6252 13.6537C88.4498 13.6537 87.497 14.1176 87.497 14.6899C87.497 15.2622 88.4498 15.7261 89.6252 15.7261Z" fill="#FF0068"/>
<path d="M91.1939 34.8899C90.221 34.4755 89.0901 34.6461 88.2874 35.3288C87.0957 36.365 87.0349 38.2546 87.6064 39.7175C88.178 41.1926 89.2481 42.3994 90.1116 43.7282C91.2668 45.5081 92.0816 47.5683 92.0451 49.6895C92.0087 51.8107 91.0479 53.9806 89.2725 55.1388C87.6308 56.2116 85.5513 56.3213 83.5934 56.3822" stroke="#3F3D56" stroke-miterlimit="10"/>
<path d="M94.4144 36.6453C94.6681 36.1326 94.0203 35.2926 92.9674 34.769C91.9145 34.2454 90.8553 34.2365 90.6016 34.7491C90.3479 35.2618 90.9958 36.1018 92.0487 36.6254C93.1015 37.1491 94.1607 37.1579 94.4144 36.6453Z" fill="#FF0068"/>
<path d="M92.9167 43.5152C93.1704 43.0025 92.5225 42.1625 91.4697 41.6389C90.4168 41.1153 89.3576 41.1064 89.1039 41.619C88.8502 42.1317 89.4981 42.9717 90.5509 43.4953C91.6038 44.019 92.663 44.0278 92.9167 43.5152Z" fill="#FF0068"/>
<path d="M88.9379 42.7658C89.1916 42.2531 88.5437 41.4131 87.4908 40.8894C86.438 40.3658 85.3788 40.357 85.1251 40.8696C84.8714 41.3823 85.5192 42.2223 86.5721 42.7459C87.625 43.2695 88.6842 43.2784 88.9379 42.7658Z" fill="#FF0068"/>
<path d="M91.8418 50.6067C92.0955 50.094 91.4476 49.254 90.3948 48.7304C89.3419 48.2068 88.2827 48.1979 88.029 48.7106C87.7753 49.2232 88.4232 50.0633 89.476 50.5869C90.5289 51.1105 91.5881 51.1194 91.8418 50.6067Z" fill="#FF0068"/>
<path d="M95.6622 52.5004C95.9159 51.9878 95.268 51.1477 94.2151 50.6241C93.1623 50.1005 92.1031 50.0916 91.8494 50.6043C91.5957 51.1169 92.2435 51.957 93.2964 52.4806C94.3493 53.0042 95.4085 53.0131 95.6622 52.5004Z" fill="#FF0068"/>
<path d="M36.2392 44.6669C36.9932 43.9233 38.0998 43.6551 39.097 43.9964C40.5806 44.5206 41.3346 46.2517 41.3467 47.8243C41.3589 49.3969 40.8117 50.9208 40.4955 52.469C40.0699 54.5536 40.082 56.7723 40.8968 58.7229C41.7116 60.6734 43.4019 62.3435 45.4814 62.758C47.4028 63.1481 49.3729 62.4776 51.2213 61.8193" stroke="#3F3D56" stroke-miterlimit="10"/>
<path d="M36.0738 46.598C36.8594 45.7216 37.152 44.7011 36.7274 44.3186C36.3028 43.9361 35.3217 44.3364 34.5361 45.2128C33.7505 46.0892 33.4579 47.1097 33.8825 47.4922C34.3071 47.8747 35.2882 47.4744 36.0738 46.598Z" fill="#FF0068"/>
<path d="M39.9979 52.4271C40.7835 51.5508 41.0761 50.5302 40.6515 50.1477C40.2268 49.7652 39.2458 50.1655 38.4602 51.0419C37.6746 51.9183 37.3819 52.9388 37.8066 53.3213C38.2312 53.7038 39.2123 53.3035 39.9979 52.4271Z" fill="#FF0068"/>
<path d="M43.4134 50.2561C44.199 49.3797 44.4916 48.3592 44.067 47.9767C43.6424 47.5942 42.6613 47.9945 41.8757 48.8709C41.0901 49.7472 40.7975 50.7678 41.2221 51.1503C41.6467 51.5328 42.6278 51.1324 43.4134 50.2561Z" fill="#FF0068"/>
<path d="M43.6139 58.6224C44.3995 57.7461 44.6922 56.7255 44.2676 56.343C43.8429 55.9605 42.8619 56.3609 42.0763 57.2372C41.2907 58.1136 40.998 59.1341 41.4227 59.5166C41.8473 59.8992 42.8283 59.4988 43.6139 58.6224Z" fill="#FF0068"/>
<path d="M40.7652 61.7941C41.5508 60.9178 41.8435 59.8972 41.4189 59.5147C40.9942 59.1322 40.0132 59.5326 39.2276 60.4089C38.442 61.2853 38.1493 62.3058 38.574 62.6883C38.9986 63.0708 39.9797 62.6705 40.7652 61.7941Z" fill="#FF0068"/>
<path d="M85.1864 30.5988L84.8459 33.0613L82.7786 48.2388L79.3979 73.0836L78.5466 79.3008C78.4129 80.2883 77.5738 81.0197 76.5888 81.0197H54.0183C53.0333 81.0197 52.1942 80.2883 52.0604 79.313L51.197 73.0836L47.7555 48.2388L45.6517 33.0369L45.3112 30.5988C45.1652 29.5138 45.9192 28.5142 47.0015 28.3679C47.0866 28.3557 47.1839 28.3435 47.269 28.3435H83.2286C84.323 28.3435 85.2108 29.2334 85.2108 30.3306C85.1986 30.4159 85.1986 30.5013 85.1864 30.5988Z" fill="#00FF00"/>
<path d="M49.6526 21.7605H80.9666C82.0611 21.7605 82.9488 22.6504 82.9488 23.7476V26.3686C82.9488 27.4658 82.0611 28.3557 80.9666 28.3557H49.6526C48.5581 28.3557 47.6703 27.4658 47.6703 26.3686V23.7476C47.6703 22.6504 48.5581 21.7605 49.6526 21.7605Z" fill="#2F2E41"/>
<path opacity="0.1" d="M82.9367 24.8691V26.3564C82.9367 27.4536 82.0489 28.3435 80.9545 28.3435H49.6526C48.5581 28.3435 47.6703 27.4536 47.6703 26.3564V24.8691C59.3934 25.9907 71.2137 25.9907 82.9367 24.8691Z" fill="black"/>
<path d="M55.8789 47.1782C58.834 47.1782 61.2296 44.7767 61.2296 41.8143C61.2296 38.8519 58.834 36.4503 55.8789 36.4503C52.9238 36.4503 50.5281 38.8519 50.5281 41.8143C50.5281 44.7767 52.9238 47.1782 55.8789 47.1782Z" fill="#2F2E41"/>
<path d="M74.8497 47.1782C77.8049 47.1782 80.2005 44.7767 80.2005 41.8143C80.2005 38.8519 77.8049 36.4503 74.8497 36.4503C71.8946 36.4503 69.499 38.8519 69.499 41.8143C69.499 44.7767 71.8946 47.1782 74.8497 47.1782Z" fill="#2F2E41"/>
<path d="M55.6357 43.2772C56.4416 43.2772 57.095 42.6222 57.095 41.8143C57.095 41.0063 56.4416 40.3514 55.6357 40.3514C54.8297 40.3514 54.1764 41.0063 54.1764 41.8143C54.1764 42.6222 54.8297 43.2772 55.6357 43.2772Z" fill="white"/>
<path d="M57.8247 39.62C58.1605 39.62 58.4327 39.3471 58.4327 39.0104C58.4327 38.6738 58.1605 38.4009 57.8247 38.4009C57.4888 38.4009 57.2166 38.6738 57.2166 39.0104C57.2166 39.3471 57.4888 39.62 57.8247 39.62Z" fill="white"/>
<path d="M74.8497 43.2772C75.6557 43.2772 76.309 42.6222 76.309 41.8143C76.309 41.0063 75.6557 40.3514 74.8497 40.3514C74.0438 40.3514 73.3904 41.0063 73.3904 41.8143C73.3904 42.6222 74.0438 43.2772 74.8497 43.2772Z" fill="white"/>
<path d="M77.0387 39.62C77.3745 39.62 77.6467 39.3471 77.6467 39.0104C77.6467 38.6738 77.3745 38.4009 77.0387 38.4009C76.7029 38.4009 76.4307 38.6738 76.4307 39.0104C76.4307 39.3471 76.7029 39.62 77.0387 39.62Z" fill="white"/>
<path opacity="0.1" d="M85.077 29.6235C85.077 29.6235 85.0648 29.6235 85.077 29.6235C85.0283 29.4772 84.9554 29.3553 84.8703 29.2334C84.8459 29.1968 84.8216 29.1603 84.7973 29.1237C84.7851 29.1115 84.7851 29.0993 84.773 29.0871C84.7 28.9896 84.6149 28.9043 84.5176 28.8189C84.4933 28.8067 84.4811 28.7824 84.4568 28.7702C84.4325 28.7458 84.4082 28.7336 84.3838 28.7092C84.3474 28.6848 84.323 28.6604 84.2865 28.6483C84.2622 28.6361 84.2379 28.6117 84.2136 28.5995C84.1771 28.5751 84.1285 28.5507 84.092 28.5385C84.0676 28.5264 84.0555 28.5142 84.0312 28.5142C83.9947 28.502 83.946 28.4776 83.9096 28.4654C83.8974 28.4532 83.8731 28.4532 83.8609 28.441C83.8001 28.4166 83.7393 28.4044 83.6785 28.3923C83.6663 28.3923 83.6542 28.3923 83.6299 28.3801C83.5812 28.3679 83.5326 28.3557 83.4839 28.3557C83.4596 28.3557 83.4474 28.3557 83.4231 28.3435C83.3623 28.3313 83.2894 28.3313 83.2286 28.3313H47.2691C46.1746 28.3313 45.2869 29.2334 45.299 30.3306C45.299 30.4159 45.3112 30.5013 45.3112 30.5866L45.372 31.0011L45.6517 33.0369L47.7555 48.2144L50.516 68.1463L52.0604 79.2886C52.1942 80.2639 53.0333 80.9953 54.0183 80.9953H55.0885C55.0398 80.8612 55.0033 80.715 54.979 80.5687L53.9332 73.0592H79.3979L82.7786 48.2144H50.4917L48.4243 33.2686C60.5487 34.256 72.7459 34.1707 84.8581 33.0369L85.1986 30.5744C85.2229 30.2696 85.1864 29.9283 85.077 29.6235Z" fill="black"/>
<path d="M88.0077 31.635C72.9162 33.2807 57.6787 33.2807 42.5871 31.635C41.4927 31.635 40.6049 30.7451 40.6049 29.6479V27.0269C40.6049 25.9297 41.4927 25.0398 42.5871 25.0398C57.6665 26.8928 72.9283 26.8928 88.0077 25.0398C89.1022 25.0398 89.9899 25.9297 89.9899 27.0269V29.6479C89.9899 30.7451 89.1022 31.635 88.0077 31.635Z" fill="#2F2E41"/>
<path d="M80.3221 72.1692H49.9201C49.3607 72.1692 48.8743 71.7547 48.7892 71.2062L45.5057 50.4697C45.4084 49.848 45.8341 49.2506 46.4543 49.1531C46.5151 49.1409 46.5759 49.1409 46.6367 49.1409H83.8244C84.4568 49.1409 84.9675 49.6529 84.9675 50.2868C84.9675 50.3478 84.9675 50.4209 84.9554 50.4819L81.4531 71.2184C81.3679 71.7669 80.8815 72.1692 80.3221 72.1692Z" fill="#2F2E41"/>
<path d="M76.8684 57.3819C77.3062 57.4672 77.5981 57.8817 77.5251 58.3327C77.5008 58.4912 77.4278 58.6253 77.3184 58.7472C75.3848 60.8075 70.7151 65.1108 65.2549 65.1108C59.7947 65.1108 55.1128 60.8075 53.1914 58.7472C52.8873 58.4181 52.8995 57.9061 53.2278 57.6013C53.3373 57.4916 53.4832 57.4184 53.6413 57.3941C61.3026 55.9677 69.1828 55.9677 76.8684 57.3819Z" fill="#00FF00"/>
<path d="M71.3231 58.6741C71.7609 58.7472 72.0649 59.1617 71.9919 59.6006C71.9676 59.7712 71.8825 59.9297 71.7609 60.0516C70.4597 61.3317 68.0275 63.2578 65.2427 63.2578C62.4579 63.2578 60.0257 61.3317 58.7245 60.0516C58.4083 59.7347 58.3962 59.2227 58.7123 58.9057C58.834 58.7838 58.992 58.6985 59.1623 58.6741C63.1875 58.0036 67.2979 58.0036 71.3231 58.6741Z" fill="white"/>
<path d="M15.3834 81.0685H99.4146" stroke="#3F3D56" stroke-miterlimit="10"/>
<path d="M22.3394 69.7798V73.2054L24.0906 75.2413C24.0906 75.2413 24.8324 74.9609 24.8324 73.1079L25.1121 70.426L22.3394 69.7798Z" fill="#A0616A"/>
<path d="M24.0905 73.2176C24.0905 73.2176 21.2206 71.2671 21.1355 70.621C21.0503 69.9749 16.9765 67.0004 17.621 68.8655C18.2655 70.7185 20.2964 71.5475 20.2964 71.5475C20.2964 71.5475 21.8651 75.8142 23.2514 75.7167C24.6378 75.6192 24.6499 73.8637 24.0905 73.2176Z" fill="#A0616A"/>
<path d="M25.7566 94.0638L26.0363 95.7339L24.5527 95.3682V94.0638H25.7566Z" fill="#3F3D56"/>
<path d="M25.4769 94.9903C25.4769 94.9903 23.7622 93.9785 23.7014 94.4417C23.6406 94.905 22.8866 96.6604 22.5218 96.8555C22.157 97.0383 21.6949 99.0742 22.5218 98.9888C23.1663 98.9157 25.5255 97.6723 26.5592 97.1237C26.8267 96.9774 26.924 96.6604 26.8024 96.38C26.7416 96.2703 26.7051 96.1484 26.6808 96.0143C26.6808 95.8314 25.4769 94.9903 25.4769 94.9903Z" fill="#2F2E41"/>
<path d="M26.3039 76.18C26.3039 76.18 19.5546 79.3252 20.1992 81.739C20.8437 84.1527 23.2515 94.3442 23.2515 94.3442C23.2515 94.3442 25.9269 94.9903 26.1215 94.3442C26.316 93.6981 24.3703 83.592 24.5527 83.2262C24.7351 82.8605 28.1645 80.4468 28.1645 80.4468L35.1934 77.4844L32.2262 74.6927L26.3039 76.18Z" fill="#2F2E41"/>
<path d="M21.2206 94.6246L20.3937 96.758L21.8773 97.4041L22.8015 95.734L21.2206 94.6246Z" fill="#3F3D56"/>
<path d="M26.2187 60.9781C26.2187 60.9781 27.0457 62.0875 26.4012 62.6483C25.7566 63.209 26.2187 65.2449 26.2187 65.2449L27.0457 67.5611L30.3777 66.915V63.1115L30.1953 61.2585C30.1953 61.2585 28.5293 59.6859 28.3469 58.479C28.1645 57.2721 26.2187 60.9781 26.2187 60.9781Z" fill="#A0616A"/>
<path opacity="0.1" d="M26.2187 60.9781C26.2187 60.9781 27.0457 62.0875 26.4012 62.6483C25.7566 63.209 26.2187 65.2449 26.2187 65.2449L27.0457 67.5611L30.3777 66.915V63.1115L30.1953 61.2585C30.1953 61.2585 28.5293 59.6859 28.3469 58.479C28.1645 57.2721 26.2187 60.9781 26.2187 60.9781Z" fill="black"/>
<path d="M31.764 75.4363C31.764 75.4363 27.4226 80.2517 27.4226 80.4467C27.4226 80.6296 25.1121 84.4331 25.1121 84.4331L20.5761 94.5393C20.5761 94.5393 22.3273 96.953 23.0691 96.758C23.8109 96.5751 29.0765 85.8229 29.0765 85.8229C29.0765 85.8229 30.0007 83.4091 32.4937 82.8605C34.9867 82.2997 36.9324 80.3614 36.0082 78.1305C35.0839 75.8996 31.764 75.4363 31.764 75.4363Z" fill="#2F2E41"/>
<path d="M26.2187 61.6242C27.8507 61.6242 29.1738 60.298 29.1738 58.6619C29.1738 57.0258 27.8507 55.6996 26.2187 55.6996C24.5866 55.6996 23.2636 57.0258 23.2636 58.6619C23.2636 60.298 24.5866 61.6242 26.2187 61.6242Z" fill="#A0616A"/>
<path d="M26.3038 63.4772C26.3038 63.4772 26.6687 65.6106 27.0456 65.7935C27.4105 65.9763 27.6902 66.6224 28.5293 65.6959C29.3684 64.7694 30.098 62.9164 30.098 62.9164L32.968 66.4396L33.2477 76.1678C33.2477 76.1678 30.0129 75.3388 28.9914 76.1678C27.9699 76.9968 25.7566 76.9114 25.7566 76.9114L26.2187 75.0584L25.8539 71.9132L25.9512 69.0362L26.0485 67.0003L26.3038 63.4772Z" fill="#9CFFFF"/>
<path d="M26.6322 61.9168C26.6322 61.9168 25.3796 62.5507 25.2945 62.9164C25.2094 63.2822 23.5433 64.0258 23.5433 64.0258C23.5433 64.0258 22.8988 64.6719 22.8988 65.0498C22.8988 65.4277 25.1121 69.6823 25.1121 69.6823C25.1121 69.6823 25.5742 72.5593 25.3918 73.1079C25.2094 73.6565 25.7566 75.7899 25.7566 75.7899L24.65 77.0821H25.6715C25.6715 77.0821 26.7781 76.5213 26.7781 76.2531C26.7781 75.9849 26.5957 74.0344 26.4984 73.1933C26.4011 72.3643 26.4011 69.3897 26.5957 68.3779C26.7903 67.3661 26.693 64.6719 26.693 64.0258C26.693 63.3797 26.6322 61.9168 26.6322 61.9168Z" fill="#3F3D56"/>
<path d="M29.5021 60.5149C29.5021 60.5149 29.9155 60.6124 31.1195 60.9781C32.3234 61.3439 34.1718 61.9046 34.8164 62.6483C35.2663 63.1969 35.6676 63.782 36.0203 64.4037L35.6555 71.0721C35.6555 71.0721 36.3973 72.4618 36.3 73.2055C36.2027 73.9491 35.473 74.0344 36.0203 75.6192C36.5675 77.204 37.6863 78.5816 36.6648 78.7644C35.6433 78.9473 32.9679 78.3012 31.764 78.6669C30.5601 79.0326 29.1737 77.2894 29.1737 77.2894C29.1737 77.2894 31.0222 77.4722 30.7425 76.7286C30.4628 75.985 27.4104 67.6465 28.0671 65.7935C28.7116 63.9405 29.5021 60.5149 29.5021 60.5149Z" fill="#3F3D56"/>
<path d="M23.3488 64.5988L22.8867 64.9645C22.8867 64.9645 21.5976 69.597 21.9624 70.0602C22.3273 70.5235 25.2945 71.5475 25.4769 70.8892C25.6593 70.2309 23.3488 64.5988 23.3488 64.5988Z" fill="#3F3D56"/>
<path d="M37.0296 67.8415C37.0296 67.8415 38.416 71.8279 38.416 72.9372C38.416 74.0466 38.2335 80.5321 38.2335 80.5321C38.2335 80.5321 38.1363 83.3116 36.2027 82.2022C34.257 81.0928 36.2027 80.3492 36.2027 80.3492C36.2027 80.3492 36.1054 73.0226 35.3758 72.0108C34.6461 70.9989 34.3542 69.5117 34.3542 69.5117L37.0296 67.8415Z" fill="#A0616A"/>
<path d="M21.8773 96.6604C21.8773 96.6604 20.4909 95.9168 20.2112 96.4776C19.9315 97.0384 18.4601 100.098 18.6425 100.464C18.8249 100.83 19.8464 102.317 21.0503 101.951C22.2543 101.586 22.3394 99.635 22.3394 99.635L22.4367 97.4163L21.8773 96.6604Z" fill="#2F2E41"/>
<path d="M25.635 57.9426C25.8417 58.0401 26.0849 58.1011 26.2065 58.284C26.3038 58.4181 26.316 58.6009 26.3768 58.7472C26.5349 59.0642 26.9119 59.1983 27.228 59.0642C27.2645 58.8813 27.374 58.7106 27.5321 58.6131C27.6901 58.5034 27.8969 58.5156 28.055 58.6375C28.2495 58.8203 28.1766 59.1373 28.2617 59.3811C28.3468 59.5518 28.4563 59.7103 28.6022 59.8444C28.8089 60.076 28.967 60.3564 29.2102 60.5392C29.4535 60.7221 29.8183 60.8074 30.0615 60.6246C30.2682 60.4661 30.3047 60.1613 30.2561 59.9053C30.2074 59.6493 30.0858 59.4177 30.0129 59.1617C29.794 58.3449 30.1466 57.4794 30.0372 56.6382C29.8913 55.5654 28.9792 54.7121 27.9698 54.3463C27.5442 54.1757 27.0821 54.1269 26.6322 54.2001C26.17 54.3098 25.7687 54.6024 25.3188 54.773C24.8445 54.9559 24.3216 54.9803 23.823 55.09C23.3244 55.1997 22.8137 55.4069 22.5218 55.8214C22.3151 56.114 22.2543 56.4797 22.084 56.7967C21.8894 57.1502 21.5854 57.4306 21.2084 57.5891L21.7314 57.5647C21.6462 57.7963 21.5003 58.0158 21.3057 58.1742C21.5489 58.223 21.8043 58.1864 22.0354 58.0767C22.0232 58.2961 21.9259 58.5034 21.7678 58.6497C22.1691 58.6375 22.6069 58.6131 22.9474 58.4059C23.1177 58.2961 23.2515 58.1499 23.4095 58.028C23.75 57.7719 24.1635 57.65 24.577 57.5281C24.7959 57.4672 25.0513 57.3818 25.2458 57.5159C25.4039 57.6378 25.4282 57.8451 25.635 57.9426Z" fill="#2F2E41"/>
<path d="M34.634 63.2944L36.0203 64.4037L37.8687 68.6705C37.8687 68.6705 35.2785 70.7063 34.634 70.4259C33.9894 70.1456 32.8828 65.2327 32.8828 65.2327L34.634 63.2944Z" fill="#3F3D56"/>
<path d="M20.8436 67.5977L20.8193 67.7684L20.6733 68.8168L20.4423 70.5357L20.3815 70.9623C20.3693 71.0355 20.3085 71.0842 20.2477 71.0842H18.679C18.606 71.0842 18.5574 71.0355 18.5452 70.9623L18.4844 70.5357L18.2412 68.8168L18.0953 67.7684L18.0709 67.5977C18.0588 67.5245 18.1074 67.4514 18.1925 67.4392C18.2047 67.4392 18.2047 67.4392 18.2169 67.4392H20.7098C20.7828 67.4392 20.8436 67.5002 20.8436 67.5733C20.8436 67.5855 20.8436 67.5977 20.8436 67.5977Z" fill="#00FF00"/>
<path d="M18.3871 66.9882H20.5518C20.6247 66.9882 20.6855 67.0491 20.6855 67.1223V67.3051C20.6855 67.3783 20.6247 67.4392 20.5518 67.4392H18.3871C18.3142 67.4392 18.2534 67.3783 18.2534 67.3051V67.1223C18.2412 67.0491 18.302 66.9882 18.3871 66.9882Z" fill="#2F2E41"/>
<path d="M21.0382 67.6708C19.9923 67.7806 18.9344 67.7806 17.8885 67.6708C17.8156 67.6708 17.7548 67.6099 17.7548 67.5367V67.3539C17.7548 67.2807 17.8156 67.2198 17.8885 67.2198C18.9344 67.3539 19.9923 67.3539 21.0382 67.2198C21.1111 67.2198 21.1719 67.2807 21.1719 67.3539V67.5367C21.1719 67.6099 21.1111 67.6708 21.0382 67.6708Z" fill="#2F2E41"/>
<path d="M20.5031 70.4869H18.3993C18.3628 70.4869 18.3263 70.4625 18.3263 70.4137L18.0953 68.9752C18.0831 68.9265 18.1196 68.8899 18.1561 68.8899H18.1682H20.7463C20.795 68.8899 20.8315 68.9265 20.8315 68.9752V68.9874L20.5882 70.4259C20.5761 70.4503 20.5518 70.4869 20.5031 70.4869Z" fill="#2F2E41"/>
</g>
<defs>
<clipPath id="clip0">
<rect width="121" height="102" fill="white"/>
</clipPath>
</defs>
</svg>
