<svg width="81" height="81" viewBox="0 0 81 81" fill="none" xmlns="http://www.w3.org/2000/svg">
<path d="M80.2895 35.9604C80.2611 35.9604 80.2327 35.9462 80.2043 35.9319L40.9122 8.48058C40.6706 8.30954 40.3437 8.30954 40.1022 8.48058L1.08006 35.9319C1.00901 35.9747 0.923743 35.9604 0.881111 35.9034C0.83848 35.8322 0.85269 35.7466 0.909532 35.7039L39.9316 8.25253C40.2727 8.01023 40.7274 8.01023 41.0685 8.25253L80.3748 35.7039C80.4458 35.7466 80.4601 35.8322 80.4032 35.9034C80.3748 35.9462 80.3322 35.9604 80.2895 35.9604Z" fill="#3F3D56"/>
<path d="M3.31104 36.9296L40.5426 9.26447L78.0584 38.9108L42.461 60.0765L23.1347 55.6581L3.31104 36.9296Z" fill="#E6E6E6"/>
<path d="M24.769 73.1466H6.36635C5.89741 73.1466 5.49951 72.7617 5.49951 72.2914C5.49951 71.821 5.8832 71.422 6.35214 71.422H24.7406C25.2095 71.422 25.6074 71.8068 25.6074 72.2771C25.6216 72.7617 25.2379 73.1466 24.769 73.1466Z" fill="#9327FF"/>
<path d="M12.9742 69.4408H6.36635C5.89741 69.4408 5.49951 69.056 5.49951 68.5856C5.49951 68.1153 5.8832 67.7162 6.35214 67.7162H12.9458C13.4148 67.7162 13.8127 68.101 13.8127 68.5714C13.8269 69.056 13.4432 69.4408 12.9742 69.4408Z" fill="#9327FF"/>
<path d="M41.0685 52.3514C40.9263 52.3514 40.7842 52.3229 40.6563 52.2659L17.6921 42.7163V12.7992C17.6921 12.2434 18.1327 11.8015 18.6869 11.8015H62.7395C63.2937 11.8015 63.7342 12.2434 63.7342 12.7992V42.7306L63.6916 42.7449L41.4806 52.2516C41.3527 52.3229 41.2106 52.3514 41.0685 52.3514Z" fill="white"/>
<path d="M41.0684 52.4227C40.9263 52.4227 40.77 52.3942 40.6279 52.3372L17.621 42.7591V12.7992C17.621 12.2149 18.1042 11.7303 18.6868 11.7303H62.7394C63.3221 11.7303 63.8052 12.2149 63.8052 12.7992V42.7876L41.5089 52.3372C41.3668 52.3942 41.2105 52.4227 41.0684 52.4227ZM17.9052 42.5738L40.7416 52.0806C40.9547 52.1661 41.1963 52.1661 41.4095 52.0806L63.521 42.5881V12.7992C63.521 12.3716 63.1658 12.0153 62.7394 12.0153H18.6868C18.2605 12.0153 17.9052 12.3716 17.9052 12.7992V42.5738Z" fill="#3F3D56"/>
<path d="M80.0053 35.6754H79.9768L63.6632 42.6593L41.3384 52.2231C41.1679 52.2944 40.9689 52.2944 40.7842 52.2231L17.7632 42.6451L1.05158 35.6896L1.02316 35.6754H0.994737C0.440526 35.6754 0 36.1172 0 36.6731V80.0023C0 80.5582 0.440526 81 0.994737 81H80.0053C80.5595 81 81 80.5582 81 80.0023V36.6731C81 36.1172 80.5595 35.6754 80.0053 35.6754ZM80.7158 80.0023C80.7158 80.4014 80.4032 80.7149 80.0053 80.7149H0.994737C0.596842 80.7149 0.284211 80.4014 0.284211 80.0023V36.6731C0.284211 36.2882 0.582632 35.9747 0.966316 35.9604L17.7632 42.9444L40.6847 52.4797C40.9263 52.5795 41.2105 52.5795 41.4521 52.4797L63.6632 42.9729L80.0337 35.9604C80.4174 35.9747 80.7158 36.2882 80.7158 36.6731V80.0023Z" fill="#3F3D56"/>
<path d="M40.8268 43.8708C39.9742 43.8708 39.15 43.6 38.4821 43.0869L38.4395 43.0584L29.5863 36.2597C27.8668 34.9342 27.54 32.4542 28.8616 30.7295C30.1832 29.0049 32.6558 28.6771 34.3753 30.0026L40.1163 34.4068L53.6589 16.6761C54.9805 14.9514 57.4532 14.6236 59.1726 15.9491L59.0874 16.0632L59.1726 15.9491C60.8921 17.2747 61.2189 19.7547 59.8974 21.4793L43.9674 42.3315C43.2142 43.3007 42.0632 43.8708 40.8268 43.8708Z" fill="#9327FF"/>
<path d="M30.3821 17.2319C29.3732 17.2319 28.4495 17.1036 27.6395 16.8328C26.8295 16.5763 26.119 16.22 25.5079 15.7639C24.8969 15.3078 24.4137 14.7947 24.0158 14.2103L25.6074 12.5997C25.92 13.1271 26.3179 13.5831 26.7869 13.9822C27.27 14.3813 27.81 14.6949 28.4495 14.9087C29.0748 15.1367 29.7569 15.2508 30.51 15.2508C31.519 15.2508 32.329 15.0797 32.9116 14.7234C33.4942 14.3671 33.7926 13.8397 33.7926 13.1413C33.7926 12.7422 33.6363 12.3716 33.3379 12.0581C33.0395 11.7303 32.4995 11.488 31.7321 11.3027L28.4637 10.533C27.5969 10.3335 26.8863 10.0626 26.3321 9.72057C25.7779 9.3785 25.3516 8.95091 25.0958 8.45205C24.8258 7.9532 24.6979 7.39733 24.6979 6.7987C24.6979 5.97203 24.9111 5.23087 25.3516 4.57523C25.7921 3.91959 26.4316 3.39223 27.27 2.99314C28.1084 2.59406 29.1174 2.39451 30.2969 2.39451C31.5616 2.39451 32.6842 2.63682 33.6363 3.10717C34.5884 3.59177 35.3842 4.30442 36.0095 5.25937L34.489 6.74169C33.9347 5.88651 33.3095 5.27363 32.6132 4.90305C31.9169 4.53247 31.0784 4.34718 30.1121 4.34718C29.4016 4.34718 28.8048 4.44695 28.35 4.63224C27.8953 4.81753 27.5542 5.07409 27.3269 5.40191C27.0995 5.72972 26.9858 6.08605 26.9858 6.47088C26.9858 6.78445 27.0426 7.06951 27.1705 7.32607C27.2984 7.58262 27.5258 7.81067 27.8811 7.99596C28.2221 8.1955 28.7053 8.35228 29.3305 8.49481L32.2437 9.15045C33.6363 9.46402 34.6169 9.93437 35.1995 10.5473C35.7821 11.1601 36.0663 11.944 36.0663 12.899C36.0663 13.7827 35.8247 14.5524 35.3558 15.1937C34.8726 15.8494 34.219 16.3482 33.3663 16.7046C32.4995 17.0609 31.519 17.2319 30.3821 17.2319ZM29.4442 19.4126V0.285065H31.2348V19.4126H29.4442Z" fill="#E6E6E6"/>
<path d="M29.43 16.9469C28.421 16.9469 27.4973 16.8186 26.6873 16.5478C25.8773 16.2912 25.1668 15.9349 24.5558 15.4788C23.9447 15.0227 23.4616 14.5096 23.0637 13.9252L24.6552 12.3146C24.9679 12.842 25.3658 13.2981 25.8347 13.6972C26.3179 14.0963 26.8579 14.4098 27.4973 14.6236C28.1226 14.8517 28.8047 14.9657 29.5579 14.9657C30.5668 14.9657 31.3768 14.7947 31.9594 14.4383C32.5421 14.082 32.8405 13.5546 32.8405 12.8562C32.8405 12.4572 32.6842 12.0866 32.3858 11.773C32.0873 11.4452 31.5473 11.2029 30.78 11.0176L27.5116 10.2479C26.6447 10.0484 25.9342 9.77758 25.38 9.43551C24.8258 9.09344 24.3994 8.66585 24.1437 8.16699C23.8737 7.66813 23.7458 7.11227 23.7458 6.51364C23.7458 5.68696 23.9589 4.9458 24.3994 4.29016C24.84 3.63452 25.4794 3.10716 26.3179 2.70808C27.1563 2.30899 28.1652 2.10945 29.3447 2.10945C30.6094 2.10945 31.7321 2.35175 32.6842 2.8221C33.6363 3.3067 34.4321 4.01936 35.0573 4.97431L33.5368 6.45663C32.9826 5.60144 32.3573 4.98856 31.661 4.61798C30.9647 4.24741 30.1263 4.06212 29.16 4.06212C28.4494 4.06212 27.8526 4.16189 27.3979 4.34718C26.9431 4.53247 26.6021 4.78902 26.3747 5.11684C26.1473 5.44466 26.0337 5.80099 26.0337 6.18582C26.0337 6.49938 26.0905 6.78445 26.2184 7.041C26.3463 7.29755 26.5737 7.5256 26.9289 7.71089C27.27 7.91044 27.7531 8.06722 28.3784 8.20975L31.2916 8.86539C32.6842 9.17896 33.6647 9.64931 34.2473 10.2622C34.83 10.8751 35.1142 11.659 35.1142 12.6139C35.1142 13.4976 34.8726 14.2673 34.4037 14.9087C33.9205 15.5643 33.2668 16.0632 32.4142 16.4195C31.5616 16.7758 30.5668 16.9469 29.43 16.9469ZM28.4921 19.1276V0H30.2826V19.1276H28.4921Z" fill="#00FF00"/>
</svg>
