<svg width="163" height="120" viewBox="0 0 163 120" fill="none" xmlns="http://www.w3.org/2000/svg">
<path d="M157.399 117.213C153.464 120.063 148.364 120.21 143.429 119.853C142.742 119.811 142.055 119.749 141.389 119.686C141.389 119.686 141.389 119.686 141.368 119.686C141.326 119.686 141.306 119.686 141.264 119.686C141.118 119.665 140.993 119.665 140.848 119.644L140.889 119.707L140.993 119.895C140.952 119.832 140.91 119.77 140.889 119.707C140.868 119.686 140.868 119.665 140.848 119.644C139.577 117.402 138.307 115.097 137.974 112.541C137.641 109.88 138.578 106.883 140.889 105.584C141.201 105.416 141.514 105.27 141.847 105.186C141.993 105.144 142.118 105.102 142.263 105.081C144.97 104.474 147.635 106.192 148.239 108.916C148.447 109.817 148.384 110.76 148.093 111.64C150.05 109.607 149.696 106.317 149.009 103.573C148.322 100.828 147.51 97.7685 148.884 95.296C149.654 93.913 151.008 93.0749 152.528 92.7187C152.569 92.7187 152.611 92.6977 152.673 92.6977C154.485 92.3206 156.358 92.6558 157.92 93.6197C160.814 95.4636 162.313 98.9418 162.792 102.357C163.604 107.847 161.876 113.965 157.399 117.213Z" fill="#F2F2F2"/>
<path d="M156.129 108.413C156.025 109.628 155.734 110.822 155.276 111.933C154.859 112.939 154.297 113.861 153.589 114.699C152.153 116.396 150.321 117.716 148.28 118.554C146.719 119.204 145.095 119.644 143.429 119.853C142.742 119.811 142.055 119.749 141.389 119.686C141.389 119.686 141.389 119.686 141.368 119.686C141.326 119.686 141.306 119.686 141.264 119.686C141.118 119.665 140.993 119.665 140.847 119.644L140.889 119.707L140.993 119.895C140.952 119.832 140.91 119.77 140.889 119.707C140.868 119.686 140.868 119.665 140.847 119.644C143.367 117.108 144.533 113.504 143.929 109.942C143.617 108.203 142.909 106.569 141.868 105.165C142.013 105.123 142.138 105.081 142.284 105.06C142.68 105.605 143.034 106.192 143.325 106.82C144.387 109 144.741 111.493 144.304 113.882C143.887 116.061 142.888 118.051 141.389 119.665C141.514 119.665 141.659 119.644 141.784 119.623C144.241 119.413 146.698 118.889 148.926 117.8C150.841 116.899 152.486 115.516 153.756 113.819C155.109 111.933 155.713 109.691 155.796 107.386C155.88 104.914 155.609 102.441 155.026 100.052C154.464 97.6009 153.589 95.2331 152.444 92.9911C152.382 92.8864 152.423 92.7606 152.528 92.6978C152.569 92.6768 152.611 92.6559 152.673 92.6768C152.715 92.6978 152.757 92.7187 152.777 92.7606C152.923 93.033 153.048 93.3054 153.194 93.5988C154.297 95.9246 155.109 98.3762 155.609 100.912C156.129 103.363 156.379 105.919 156.129 108.413Z" fill="white"/>
<path d="M7.32865 38.1561C7.20373 38.1561 7.09963 38.1352 6.99553 38.0932C6.64159 37.9466 6.39175 37.6113 6.39175 37.2132V27.3651C6.39175 26.6737 5.82961 26.1079 5.14255 26.1079H3.123C1.39494 26.1079 0 24.704 0 22.9649V3.14301C0 1.40388 1.39494 0 3.123 0H73.8486C75.5767 0 76.9716 1.40388 76.9716 3.14301V22.9649C76.9716 24.704 75.5767 26.1079 73.8486 26.1079H19.2585C18.9046 26.1079 18.5715 26.2546 18.3424 26.506L8.01571 37.8418C7.82833 38.0513 7.57849 38.1561 7.32865 38.1561ZM3.123 0.419068C1.62396 0.419068 0.416401 1.63436 0.416401 3.14301V22.9649C0.416401 24.4735 1.62396 25.6888 3.123 25.6888H5.12173C6.03781 25.6888 6.78733 26.4432 6.78733 27.3651V37.2132C6.78733 37.5065 7.01635 37.737 7.30783 37.737C7.45357 37.737 7.59931 37.6742 7.68259 37.5694L18.0093 26.2336C18.3216 25.8774 18.7797 25.6888 19.2377 25.6888H73.8278C75.3269 25.6888 76.5344 24.4735 76.5344 22.9649V3.14301C76.5344 1.63436 75.3269 0.419068 73.8278 0.419068H3.123Z" fill="#CCCCCC"/>
<path d="M7.66175 8.92615C9.16806 8.92615 10.3892 7.69722 10.3892 6.18126C10.3892 4.6653 9.16806 3.43637 7.66175 3.43637C6.15544 3.43637 4.93433 4.6653 4.93433 6.18126C4.93433 7.69722 6.15544 8.92615 7.66175 8.92615Z" fill="#CCCCCC"/>
<path d="M70.6632 21.3934H6.30848C5.4965 21.3934 4.85107 20.7438 4.85107 19.9267C4.85107 19.1095 5.4965 18.4599 6.30848 18.4599H70.6632C71.4752 18.4599 72.1206 19.1095 72.1206 19.9267C72.1206 20.7438 71.4752 21.3934 70.6632 21.3934Z" fill="#CCCCCC"/>
<path d="M49.6974 15.1703H6.30848C5.4965 15.1703 4.85107 14.5207 4.85107 13.7035C4.85107 12.8863 5.4965 12.2368 6.30848 12.2368H49.6974C50.5094 12.2368 51.1548 12.8863 51.1548 13.7035C51.1548 14.4998 50.5094 15.1703 49.6974 15.1703Z" fill="#CCCCCC"/>
<path d="M7.32865 108.057C7.20373 108.057 7.09963 108.036 6.99553 107.994C6.64159 107.847 6.39175 107.512 6.39175 107.114V97.2656C6.39175 96.5742 5.82961 96.0084 5.14255 96.0084H3.123C1.39494 96.0084 0 94.6045 0 92.8654V73.0435C0 71.3044 1.39494 69.9005 3.123 69.9005H73.8486C75.5767 69.9005 76.9716 71.3044 76.9716 73.0435V92.8654C76.9716 94.6045 75.5767 96.0084 73.8486 96.0084H19.2585C18.9046 96.0084 18.5715 96.1551 18.3424 96.4065L8.01571 107.742C7.82833 107.952 7.57849 108.057 7.32865 108.057ZM3.123 70.3196C1.62396 70.3196 0.416401 71.5348 0.416401 73.0435V92.8654C0.416401 94.3741 1.62396 95.5893 3.123 95.5893H5.12173C6.03781 95.5893 6.78733 96.3437 6.78733 97.2656V107.114C6.78733 107.407 7.01635 107.638 7.30783 107.638C7.45357 107.638 7.59931 107.575 7.68259 107.47L18.0093 96.1341C18.3216 95.7779 18.7797 95.5893 19.2377 95.5893H73.8278C75.3269 95.5893 76.5344 94.3741 76.5344 92.8654V73.0435C76.5344 71.5348 75.3269 70.3196 73.8278 70.3196H3.123Z" fill="#CCCCCC"/>
<path d="M111.762 71.7444C111.491 71.7444 111.241 71.6396 111.075 71.4301L100.748 60.0943C100.519 59.8429 100.186 59.6962 99.8321 59.6962H45.2419C43.5139 59.6962 42.1189 58.2923 42.1189 56.5532V36.7313C42.1189 34.9922 43.5139 33.5883 45.2419 33.5883H115.968C117.696 33.5883 119.091 34.9922 119.091 36.7313V56.5532C119.091 58.2923 117.696 59.6962 115.968 59.6962H113.969C113.282 59.6962 112.72 60.2619 112.72 60.9534V70.8015C112.72 71.1996 112.491 71.5348 112.116 71.6815C112.012 71.7234 111.887 71.7444 111.762 71.7444ZM45.2419 33.9864C43.7429 33.9864 42.5353 35.2017 42.5353 36.7103V56.5322C42.5353 58.0409 43.7429 59.2562 45.2419 59.2562H99.8321C100.29 59.2562 100.748 59.4447 101.06 59.801L111.387 71.1367C111.575 71.3463 111.908 71.3672 112.116 71.1786C112.22 71.0739 112.282 70.9481 112.282 70.8015V60.9534C112.282 60.0314 113.032 59.2771 113.948 59.2771H115.947C117.446 59.2771 118.653 58.0618 118.653 56.5532V36.7313C118.653 35.2227 117.446 34.0074 115.947 34.0074L45.2419 33.9864Z" fill="#3F3D56"/>
<path d="M7.66175 78.8266C9.16806 78.8266 10.3892 77.5977 10.3892 76.0817C10.3892 74.5658 9.16806 73.3368 7.66175 73.3368C6.15544 73.3368 4.93433 74.5658 4.93433 76.0817C4.93433 77.5977 6.15544 78.8266 7.66175 78.8266Z" fill="#CCCCCC"/>
<path d="M70.6632 91.2939H6.30848C5.4965 91.2939 4.85107 90.6443 4.85107 89.8271C4.85107 89.01 5.4965 88.3604 6.30848 88.3604H70.6632C71.4752 88.3604 72.1206 89.01 72.1206 89.8271C72.1206 90.6443 71.4752 91.2939 70.6632 91.2939Z" fill="#CCCCCC"/>
<path d="M49.6974 85.0707H6.30848C5.4965 85.0707 4.85107 84.4212 4.85107 83.604C4.85107 82.7868 5.4965 82.1372 6.30848 82.1372H49.6974C50.5094 82.1372 51.1548 82.7868 51.1548 83.604C51.1548 84.4002 50.5094 85.0498 49.6974 85.0707Z" fill="#CCCCCC"/>
<path d="M49.7807 42.3048C51.287 42.3048 52.5081 41.0759 52.5081 39.56C52.5081 38.044 51.287 36.8151 49.7807 36.8151C48.2744 36.8151 47.0533 38.044 47.0533 39.56C47.0533 41.0759 48.2744 42.3048 49.7807 42.3048Z" fill="#3F3D56"/>
<path d="M112.782 54.7931H48.4274C47.6154 54.7931 46.97 54.1435 46.97 53.3264C46.97 52.5092 47.6154 51.8596 48.4274 51.8596H112.782C113.594 51.8596 114.24 52.5092 114.24 53.3264C114.24 54.1435 113.573 54.7931 112.782 54.7931Z" fill="#FF0068"/>
<path d="M91.8163 48.549H48.4274C47.6154 48.549 46.97 47.8994 46.97 47.0822C46.97 46.265 47.6154 45.6155 48.4274 45.6155H91.8163C92.6283 45.6155 93.2737 46.265 93.2737 47.0822C93.2737 47.8994 92.6283 48.549 91.8163 48.549Z" fill="#FF0068"/>
<path d="M112.74 75.516C112.969 74.3845 114.094 73.6511 115.218 73.8816C115.343 73.9026 115.447 73.9445 115.572 73.9864L120.465 68.329L121.506 72.0796L116.717 76.8779C116.217 77.9256 114.947 78.3656 113.906 77.8628C113.011 77.4437 112.553 76.4589 112.74 75.516Z" fill="#FFB8B8"/>
<path d="M139.557 49.0099C142.385 49.0099 144.678 46.7022 144.678 43.8554C144.678 41.0086 142.385 38.7009 139.557 38.7009C136.728 38.7009 134.435 41.0086 134.435 43.8554C134.435 46.7022 136.728 49.0099 139.557 49.0099Z" fill="#FFB8B8"/>
<path d="M133.54 114.699H131L129.771 104.788H133.54V114.699Z" fill="#FFB8B8"/>
<path d="M134.206 117.192H125.982V117.087C125.982 115.306 127.419 113.861 129.188 113.861H134.206V117.192Z" fill="#2200FF"/>
<path d="M141.243 117.423H138.703L138.349 107.742L141.243 107.512V117.423Z" fill="#FFB8B8"/>
<path d="M141.909 119.916H133.685V119.811C133.685 118.03 135.122 116.585 136.892 116.585H141.909V119.916Z" fill="#2200FF"/>
<path d="M140.514 115.6L138.536 115.369C138.078 115.306 137.724 114.929 137.704 114.447L137.329 88.4023C137.329 88.2347 137.183 88.088 137.017 88.088C136.892 88.088 136.767 88.1718 136.725 88.2975L133.977 96.1341L134.164 110.822C134.164 111.325 133.79 111.744 133.29 111.786L130.687 111.891C130.188 111.912 129.771 111.556 129.709 111.074L128.355 94.4578L130.417 77.1084L145.865 78.2399L141.576 114.804C141.514 115.285 141.118 115.642 140.639 115.642C140.598 115.621 140.556 115.621 140.514 115.6Z" fill="#2200FF"/>
<path d="M130.479 78.6171C130.188 78.4704 130.021 78.1771 129.979 77.8628C129.979 77.8628 131.374 69.1671 131.874 68.9995L130.771 59.6962C130.5 57.4123 131.166 55.1074 132.603 53.3054C133.998 51.5663 136.017 50.4767 138.224 50.2672C138.37 50.2462 138.536 50.2462 138.682 50.2253C141.347 50.0786 143.929 51.252 145.574 53.3892C147.281 55.5265 147.843 58.3761 147.073 61.0163L146.448 63.1954V78.4914C146.448 78.7847 146.302 79.0781 146.052 79.2666C144.116 80.7124 141.909 81.2153 139.765 81.2153C135.767 81.2363 131.936 79.4133 130.479 78.6171Z" fill="#FF0068"/>
<path d="M118.487 75.8302L115.801 73.8187C115.385 73.5044 115.301 72.9177 115.614 72.4987C115.634 72.4777 115.655 72.4358 115.676 72.4148L131.687 55.1283C132.749 53.9968 134.477 53.8082 135.747 54.6883C137.162 55.6731 137.516 57.6427 136.517 59.0675C136.413 59.2352 136.288 59.3818 136.142 59.5076L119.694 75.7464C119.403 76.0398 118.945 76.1026 118.57 75.8931C118.549 75.8722 118.508 75.8512 118.487 75.8302Z" fill="#FF0068"/>
<path d="M139.036 73.5464C139.473 72.4777 140.702 71.9539 141.764 72.4149C141.868 72.4568 141.993 72.5197 142.097 72.5825L147.947 67.9518L148.259 71.8282L142.659 75.6208C141.972 76.5637 140.66 76.7522 139.723 76.0608C138.953 75.495 138.661 74.4474 139.036 73.5464Z" fill="#FFB8B8"/>
<path d="M144.283 75.3483C143.971 75.2436 143.721 74.9921 143.658 74.6778L143.075 72.1844C142.992 71.8282 143.117 71.451 143.429 71.2205L147.406 66.9041L141.555 57.8313C140.639 56.6998 140.598 55.1074 141.451 53.934C142.492 52.5092 144.47 52.1949 145.886 53.2425C146.344 53.5778 146.698 54.0388 146.927 54.5626L152.361 65.2069C153.485 67.407 152.798 70.0891 150.758 71.451L145.199 75.1807C145.032 75.3274 144.803 75.4112 144.574 75.4112C144.47 75.3903 144.366 75.3693 144.283 75.3483Z" fill="#FF0068"/>
<path d="M143.346 48.4651C142.909 48.7375 142.347 48.5908 142.097 48.1508C142.055 48.088 142.013 48.0042 141.993 47.9203V47.8994C141.889 47.4803 141.972 47.0193 141.993 46.5793C142.013 46.1393 141.972 45.6574 141.68 45.3431C141.118 44.7354 140.14 45.0707 139.328 44.924C138.349 44.7145 137.683 43.7925 137.766 42.8077C137.787 42.7239 137.787 42.6191 137.808 42.5353C137.974 41.6972 137.454 40.901 136.642 40.7124C136.496 40.6914 136.371 40.6705 136.225 40.6914C135.414 40.7333 134.539 40.9848 133.873 40.3981C133.373 39.9162 133.207 39.1618 133.436 38.5123C133.81 37.4017 134.893 36.8151 135.955 36.4798C138.641 35.6836 141.535 36.1445 143.825 37.737C144.512 38.2189 145.136 38.8056 145.428 39.6019C145.719 40.3981 145.594 41.3619 144.949 41.8858C145.99 42.9753 146.365 44.5259 145.948 45.9717C145.636 46.9984 144.116 48.0042 143.346 48.4651Z" fill="#000222"/>
</svg>
