<svg width="82" height="81" viewBox="0 0 82 81" fill="none" xmlns="http://www.w3.org/2000/svg">
<g clip-path="url(#clip0)">
<path d="M80.9168 35.9604C80.8881 35.9604 80.8595 35.9462 80.8308 35.9319L41.2318 8.48058C40.9883 8.30954 40.6589 8.30954 40.4154 8.48058L1.08846 35.9319C1.01685 35.9747 0.930922 35.9604 0.887958 35.9034C0.844993 35.8321 0.859315 35.7466 0.916601 35.7039L40.2436 8.25253C40.5873 8.01023 41.0456 8.01023 41.3893 8.25253L81.0027 35.7039C81.0743 35.7466 81.0886 35.8321 81.0313 35.9034C81.0027 35.9462 80.9597 35.9604 80.9168 35.9604Z" fill="#3F3D56"/>
<path d="M3.33691 36.9296L40.8594 9.26447L78.6683 38.9108L42.7928 60.0765L23.3155 55.6581L3.33691 36.9296Z" fill="#E6E6E6"/>
<path d="M24.9625 73.1466H6.41609C5.94348 73.1466 5.54248 72.7618 5.54248 72.2914C5.54248 71.8211 5.92916 71.422 6.40177 71.422H24.9339C25.4065 71.422 25.8075 71.8068 25.8075 72.2772C25.8218 72.7618 25.4351 73.1466 24.9625 73.1466Z" fill="#9327FF"/>
<path d="M13.0756 69.4408H6.41609C5.94348 69.4408 5.54248 69.056 5.54248 68.5856C5.54248 68.1153 5.92916 67.7162 6.40177 67.7162H13.047C13.5196 67.7162 13.9206 68.101 13.9206 68.5714C13.9349 69.056 13.5482 69.4408 13.0756 69.4408Z" fill="#9327FF"/>
<path d="M41.3893 52.3514C41.246 52.3514 41.1028 52.3229 40.9739 52.2659L17.8303 42.7163V12.7992C17.8303 12.2434 18.2743 11.8015 18.8328 11.8015H63.2296C63.7882 11.8015 64.2321 12.2434 64.2321 12.7992V42.7306L64.1892 42.7448L41.8046 52.2516C41.6757 52.3229 41.5325 52.3514 41.3893 52.3514Z" fill="white"/>
<path d="M41.3893 52.4227C41.2461 52.4227 41.0885 52.3942 40.9453 52.3372L17.7587 42.7591V12.7992C17.7587 12.2149 18.2457 11.7303 18.8328 11.7303H63.2296C63.8168 11.7303 64.3037 12.2149 64.3037 12.7992V42.7876L41.8332 52.3372C41.69 52.3942 41.5325 52.4227 41.3893 52.4227ZM18.0452 42.5738L41.0599 52.0806C41.2747 52.1661 41.5182 52.1661 41.733 52.0806L64.0173 42.5881V12.7992C64.0173 12.3716 63.6593 12.0153 63.2296 12.0153H18.8328C18.4032 12.0153 18.0452 12.3716 18.0452 12.7992V42.5738Z" fill="#3F3D56"/>
<path d="M80.6303 35.6754H80.6017L64.1605 42.6593L41.6614 52.2231C41.4895 52.2944 41.289 52.2944 41.1028 52.2231L17.9019 42.6451L1.05979 35.6896L1.03115 35.6754H1.00251C0.443968 35.6754 0 36.1172 0 36.6731V80.0023C0 80.5582 0.443968 81 1.00251 81H80.6303C81.1888 81 81.6328 80.5582 81.6328 80.0023V36.6731C81.6328 36.1172 81.1888 35.6754 80.6303 35.6754ZM81.3464 80.0023C81.3464 80.4014 81.0313 80.7149 80.6303 80.7149H1.00251C0.601505 80.7149 0.286431 80.4014 0.286431 80.0023V36.6731C0.286431 36.2882 0.587183 35.9747 0.973865 35.9604L17.9019 42.9444L41.0026 52.4797C41.2461 52.5795 41.5325 52.5795 41.776 52.4797L64.1605 42.9729L80.659 35.9604C81.0456 35.9747 81.3464 36.2882 81.3464 36.6731V80.0023Z" fill="#3F3D56"/>
<path d="M30.6195 17.2319C29.6026 17.2319 28.6717 17.1036 27.8554 16.8328C27.0391 16.5763 26.323 16.22 25.7072 15.7639C25.0914 15.3078 24.6044 14.7947 24.2034 14.2103L25.8074 12.5997C26.1225 13.1271 26.5235 13.5831 26.9961 13.9822C27.4831 14.3813 28.0273 14.6949 28.6717 14.9087C29.3019 15.1367 29.9893 15.2508 30.7484 15.2508C31.7652 15.2508 32.5815 15.0797 33.1687 14.7234C33.7559 14.3671 34.0566 13.8397 34.0566 13.1413C34.0566 12.7422 33.8991 12.3716 33.5984 12.0581C33.2976 11.7303 32.7534 11.488 31.98 11.3027L28.6861 10.533C27.8125 10.3335 27.0964 10.0626 26.5378 9.72057C25.9793 9.3785 25.5497 8.95091 25.2919 8.45205C25.0198 7.9532 24.8909 7.39733 24.8909 6.7987C24.8909 5.97203 25.1057 5.23087 25.5497 4.57523C25.9936 3.91959 26.6381 3.39223 27.4831 2.99314C28.328 2.59406 29.3449 2.39451 30.5335 2.39451C31.8082 2.39451 32.9396 2.63682 33.8991 3.10717C34.8587 3.59177 35.6607 4.30442 36.2908 5.25937L34.7584 6.74169C34.1999 5.88651 33.5697 5.27363 32.868 4.90305C32.1662 4.53247 31.3212 4.34718 30.3474 4.34718C29.6313 4.34718 29.0298 4.44695 28.5715 4.63224C28.1132 4.81753 27.7695 5.07409 27.5403 5.40191C27.3112 5.72972 27.1966 6.08605 27.1966 6.47088C27.1966 6.78445 27.2539 7.06951 27.3828 7.32607C27.5117 7.58262 27.7408 7.81067 28.0989 7.99596C28.4426 8.1955 28.9295 8.35228 29.5597 8.49481L32.4956 9.15045C33.8991 9.46402 34.8873 9.93437 35.4745 10.5473C36.0617 11.1601 36.3481 11.944 36.3481 12.899C36.3481 13.7827 36.1046 14.5524 35.632 15.1937C35.1451 15.8494 34.4863 16.3482 33.627 16.7046C32.7534 17.0609 31.7652 17.2319 30.6195 17.2319ZM29.6743 19.4126V0.285065H31.4788V19.4126H29.6743Z" fill="#E6E6E6"/>
<path d="M53.7775 18.2011C52.1018 16.5335 49.3807 16.5335 47.7051 18.2011L28.2851 37.5282C26.6095 39.1958 26.6095 41.9039 28.2851 43.5715C29.1301 44.4125 30.2185 44.8258 31.3213 44.8258C32.424 44.8258 33.5125 44.4125 34.3574 43.5715L53.7631 24.2587C55.4531 22.5768 55.4531 19.8687 53.7775 18.2011Z" fill="#FF0068"/>
<path d="M53.7775 43.5715C55.4531 41.9039 55.4531 39.1958 53.7775 37.5282L34.3718 18.2011C32.6962 16.5335 29.9751 16.5335 28.2995 18.2011C27.4545 19.042 27.0392 20.1253 27.0392 21.2228C27.0392 22.3202 27.4545 23.4035 28.2995 24.2444L47.7052 43.5573C49.3808 45.2391 52.1019 45.2391 53.7775 43.5715Z" fill="#FF0068"/>
</g>
<defs>
<clipPath id="clip0">
<rect width="81.6328" height="81" fill="white"/>
</clipPath>
</defs>
</svg>
