<svg width="110" height="43" viewBox="0 0 110 43" fill="none" xmlns="http://www.w3.org/2000/svg">
<path d="M68.728 16.5323C68.6108 18.2953 68.0835 20.0816 68.5405 21.7862C69.2085 24.3197 72.0795 25.9192 74.6809 25.5456C77.2824 25.1603 79.4386 23.0705 80.3175 20.607C81.1963 18.1318 80.9034 15.3648 79.9542 12.913C78.0324 7.93931 73.0169 4.08647 67.6734 4.2616C66.3375 4.3083 64.9781 4.60018 63.8649 5.3474C62.7517 6.09462 61.9314 7.33219 61.9314 8.66318C61.9314 9.79568 62.5407 10.9048 63.5016 11.5119C64.7086 12.2825 66.0328 11.582 67.1577 12.2241C68.5405 13.018 68.8218 15.1196 68.728 16.5323Z" fill="#00FF00"/>
<path d="M49.299 31.9783C49.0764 30.7057 49.135 29.328 48.5139 28.1956C47.5881 26.5026 45.2562 25.8605 43.4633 26.5844C41.6704 27.3082 40.4985 29.1763 40.3111 31.091C40.1236 33.0057 40.8149 34.9322 41.9165 36.52C44.1664 39.7307 48.4319 41.6104 52.2169 40.548C53.1661 40.2794 54.0801 39.8358 54.748 39.1119C55.4043 38.388 55.7793 37.3606 55.5449 36.4032C55.3457 35.5977 54.7129 34.9088 53.9278 34.6403C52.9317 34.3017 52.1114 35.0372 51.1857 34.7687C50.0607 34.4535 49.4865 32.9941 49.299 31.9783Z" fill="#FF0068"/>
<path d="M37.2057 20.6537C41.283 20.6537 44.5883 17.3606 44.5883 13.2983C44.5883 9.236 41.283 5.94287 37.2057 5.94287C33.1284 5.94287 29.8232 9.236 29.8232 13.2983C29.8232 17.3606 33.1284 20.6537 37.2057 20.6537Z" fill="#9CFFFF"/>
<path d="M9.71443 0C9.67927 0.0233505 9.64412 0.0350258 9.62068 0.0583763C0.480382 5.24219 -2.707 16.8124 2.49594 25.9191C7.69888 35.0258 19.3235 38.1898 28.452 33.006C28.4872 32.9826 28.5106 32.9709 28.5458 32.9476L9.71443 0Z" fill="#9327FF"/>
<path d="M28.2412 4.99707C28.4404 4.99707 28.6044 5.1722 28.6044 5.33565V22.3582C28.6044 22.5567 28.4287 22.7201 28.2412 22.7201H23.9171C23.7179 22.7201 23.5538 22.545 23.5538 22.3582V5.33565C23.5538 5.16052 23.7296 4.99707 23.9171 4.99707H28.2412Z" fill="#000222"/>
<path d="M44.4125 15.9952C44.4125 20.245 41.518 23.0821 37.194 23.0821C32.8699 23.0821 29.9755 20.245 29.9755 16.0185C29.9755 11.7687 32.8699 8.93164 37.194 8.93164C41.518 8.93164 44.4125 11.7687 44.4125 15.9952ZM34.7683 16.0185C34.7683 17.6064 35.7526 18.6805 37.194 18.6805C38.647 18.6805 39.6197 17.6064 39.6197 15.9952C39.6197 14.4073 38.6353 13.3332 37.194 13.3332C35.7526 13.3332 34.7683 14.4073 34.7683 16.0185Z" fill="#000222"/>
<path d="M57.4667 21.3075C57.537 21.4242 57.4667 21.5994 57.3143 21.7278C55.9902 22.5567 54.1738 23.1171 52.7676 23.1171C48.3264 23.1171 45.3851 20.28 45.3851 16.0302C45.3851 11.7805 48.3264 8.94336 52.7676 8.94336C54.1621 8.94336 55.9785 9.50377 57.3143 10.3327C57.4667 10.4495 57.537 10.6246 57.4667 10.753L56.0488 13.7419C55.955 13.9404 55.7792 14.0104 55.6035 13.8937C54.9941 13.45 54.0566 13.1581 53.2481 13.1581C51.4552 13.1581 50.2833 14.3023 50.2833 16.0419C50.2833 17.7815 51.4669 18.9257 53.2481 18.9257C54.0566 18.9257 54.9941 18.6338 55.6035 18.1902C55.7792 18.0734 55.9433 18.1435 56.0488 18.342L57.4667 21.3075Z" fill="#000222"/>
<path d="M59.7283 10.788C59.658 10.6129 59.7049 10.4494 59.8455 10.321C61.24 9.44535 63.2087 8.93164 65.1773 8.93164C69.4194 8.93164 71.3881 11.1616 71.3881 16.0185V22.3465C71.3881 22.545 71.2123 22.7085 71.0248 22.7085H67.9311C67.7319 22.7085 67.5327 22.5333 67.5327 22.3465L67.3569 21.681C66.5484 22.5333 64.9312 23.0704 63.1383 23.0704C60.3142 23.0704 58.451 21.2607 58.4744 18.5754C58.4979 16.182 60.3611 14.5941 63.1383 14.5941C64.5563 14.5941 65.8336 15.1079 66.3257 15.8901V14.8627C66.3257 13.8119 65.564 13.1231 64.4391 13.1231C63.4782 13.1231 62.3063 13.4383 61.4978 13.9053C61.3806 13.9754 61.2282 13.882 61.1345 13.7068L59.7283 10.788ZM66.3257 18.3186C65.9039 17.8982 65.4937 17.7114 64.9781 17.7114C64.3688 17.7114 63.9469 18.05 63.9469 18.5871C63.9469 19.1241 64.3688 19.4627 64.9781 19.4627C65.4937 19.4627 65.9156 19.2642 66.3257 18.8556V18.3186Z" fill="#000222"/>
<path d="M77.8449 4.99707C78.0441 4.99707 78.2081 5.1722 78.2081 5.33565V22.3582C78.2081 22.5567 78.0324 22.7201 77.8449 22.7201H73.5208C73.3216 22.7201 73.1575 22.545 73.1575 22.3582V5.33565C73.1575 5.16052 73.3333 4.99707 73.5208 4.99707H77.8449Z" fill="#000222"/>
<path d="M66.9585 29.1763C67.1577 29.1763 67.2749 29.3514 67.2046 29.5149L63.2087 42.2759C63.1618 42.451 62.9626 42.6145 62.7634 42.6145H58.9549C58.7557 42.6145 58.533 42.4394 58.4627 42.2759L56.5761 35.7728L54.6894 42.2759C54.6191 42.451 54.3965 42.6145 54.1973 42.6145H50.3888C50.1896 42.6145 49.9904 42.4394 49.9435 42.2759L45.9476 29.5149C45.8773 29.3397 45.9944 29.1763 46.1936 29.1763H51.1505C51.3731 29.1763 51.5724 29.328 51.6192 29.5149L52.8965 34.8738L54.2207 29.5149C54.2676 29.2697 54.4902 29.1763 54.666 29.1763H58.4979C58.8612 29.1763 58.8963 29.2697 58.9432 29.5149L60.2674 34.8738L61.5447 29.5149C61.5915 29.3164 61.7907 29.1763 62.0134 29.1763H66.9585Z" fill="#000222"/>
<path d="M80.5049 29.1763C80.7041 29.1763 80.8682 29.3514 80.8682 29.5382V42.2759C80.8682 42.451 80.6924 42.6145 80.5049 42.6145H77.7277C77.5285 42.6145 77.4113 42.4394 77.3293 42.2526L76.966 41.3769C76.0871 42.3576 74.634 42.9881 73.0403 42.9881C69.853 42.9881 67.9546 40.9566 67.9546 37.6292V29.5382C67.9546 29.3397 68.1304 29.1763 68.3179 29.1763H72.6536C72.8528 29.1763 73.0169 29.3514 73.0169 29.5382V37.022C73.0169 37.851 73.5325 38.4114 74.3176 38.4114C75.2785 38.4114 75.8176 37.6292 75.8176 37.6292V29.5382C75.8176 29.3397 75.9934 29.1763 76.1809 29.1763H80.5049Z" fill="#000222"/>
<path d="M90.4304 29.1763C90.6296 29.1763 90.7702 29.328 90.7702 29.5149V32.6905C90.7702 32.889 90.6179 33.0291 90.4304 33.0291H89.7976C88.8601 33.0291 88.0281 33.4494 87.7117 34.0565V42.2642C87.7117 42.4627 87.5359 42.6262 87.3484 42.6262H83.0244C82.8252 42.6262 82.6611 42.451 82.6611 42.2642V29.5499C82.6611 29.3748 82.8369 29.2113 83.0244 29.2113H85.8016C86.0008 29.2113 86.118 29.3864 86.2 29.5732L86.5633 30.6474C87.3016 29.7367 88.4968 29.1763 89.7976 29.1763H90.4304Z" fill="#000222"/>
<path d="M104.539 29.1763C104.738 29.1763 104.902 29.3514 104.902 29.5382V42.2759C104.902 42.451 104.727 42.6145 104.539 42.6145H101.762C101.563 42.6145 101.446 42.4394 101.364 42.2526L101 41.3769C100.121 42.3576 98.6683 42.9881 97.0747 42.9881C93.8873 42.9881 91.9889 40.9566 91.9889 37.6292V29.5382C91.9889 29.3397 92.1647 29.1763 92.3522 29.1763H96.6762C96.8754 29.1763 97.0395 29.3514 97.0395 29.5382V37.022C97.0395 37.851 97.5551 38.4114 98.3402 38.4114C99.3011 38.4114 99.8402 37.6292 99.8402 37.6292V29.5382C99.8402 29.3397 100.016 29.1763 100.203 29.1763H104.539Z" fill="#000222"/>
<path d="M108.336 34.0685C108.348 34.0568 108.348 34.0568 108.359 34.0452C110.539 31.8736 110.539 28.3359 108.359 26.1643C106.18 23.9927 102.629 23.9927 100.45 26.1643C100.438 26.176 100.438 26.176 100.426 26.1877L108.336 34.0685Z" fill="#C7FF17"/>
<path d="M17.683 42.7199C22.3298 42.7199 26.0967 42.3174 26.0967 41.8209C26.0967 41.3244 22.3298 40.9219 17.683 40.9219C13.0362 40.9219 9.2692 41.3244 9.2692 41.8209C9.2692 42.3174 13.0362 42.7199 17.683 42.7199Z" fill="#B061FF"/>
</svg>
