<svg width="138" height="102" viewBox="0 0 138 102" fill="none" xmlns="http://www.w3.org/2000/svg">
<path d="M68.0301 102C87.8492 102 103.916 99.9785 103.916 97.4849C103.916 94.9912 87.8492 92.9698 68.0301 92.9698C48.2111 92.9698 32.1446 94.9912 32.1446 97.4849C32.1446 99.9785 48.2111 102 68.0301 102Z" fill="#EEDCFF"/>
<path d="M128.731 58.8771L114.861 65.4623L127.137 56.2514C125.142 53.1256 122.898 50.1664 120.431 47.4018L60.2711 62.4059L114.612 41.6225C112.132 39.4274 109.486 37.413 106.714 35.593L15.047 50.3887C5.32048 62.6004 0.0138554 77.7573 0 93.3865H138C137.986 81.2721 134.799 69.3661 128.731 58.8771Z" fill="#9CFFFF"/>
<path d="M99.2187 31.3141C89.8109 26.7156 79.4747 24.3261 69 24.34C47.6904 24.34 28.6253 34.037 15.9753 49.2495C37.6452 44.4982 75.3874 36.246 99.2187 31.3141Z" fill="#9CFFFF"/>
<path d="M112.797 37.9687C113.937 37.9687 114.861 37.0419 114.861 35.8987C114.861 34.7554 113.937 33.8287 112.797 33.8287C111.657 33.8287 110.733 34.7554 110.733 35.8987C110.733 37.0419 111.657 37.9687 112.797 37.9687Z" fill="#00FF00"/>
<path d="M108.973 38.3438C109.776 38.3438 110.428 37.6907 110.428 36.885C110.428 36.0794 109.776 35.4263 108.973 35.4263C108.169 35.4263 107.518 36.0794 107.518 36.885C107.518 37.6907 108.169 38.3438 108.973 38.3438Z" fill="#00FF00"/>
<path d="M14.9223 45.7208C17.3098 45.7208 19.2452 43.7802 19.2452 41.3863C19.2452 38.9924 17.3098 37.0518 14.9223 37.0518C12.5348 37.0518 10.5994 38.9924 10.5994 41.3863C10.5994 43.7802 12.5348 45.7208 14.9223 45.7208Z" fill="#00FF00"/>
<path d="M6.91385 46.4988C8.58967 46.4988 9.94819 45.1366 9.94819 43.4563C9.94819 41.776 8.58967 40.4138 6.91385 40.4138C5.23804 40.4138 3.87952 41.776 3.87952 43.4563C3.87952 45.1366 5.23804 46.4988 6.91385 46.4988Z" fill="#00FF00"/>
<path d="M123.784 93.2476L112.783 76.8543C112.783 76.8543 129.451 82.6892 127.567 93.2476H123.784Z" fill="#3F3D56"/>
<path d="M124.228 93.2476L135.229 76.8543C135.229 76.8543 118.561 82.6892 120.445 93.2476H124.228Z" fill="#FF0068"/>
<path d="M27.2952 18.4495C27.2952 17.5464 26.0066 16.8101 24.4271 16.8101C24.3994 16.8101 24.3717 16.8101 24.3301 16.8101C23.859 15.3375 21.6006 14.2261 18.8849 14.2261C16.5711 14.2261 14.6036 15.0319 13.7584 16.1711C13.1488 16.0044 12.5115 15.921 11.8741 15.9349C9.4494 15.9349 7.48193 17.0602 7.48193 18.4356C7.48193 19.6859 9.10302 20.7279 11.2229 20.9085C12.7608 21.1863 15.1717 21.3669 17.8596 21.3669C22.4458 21.3669 25.7988 20.4917 25.8819 19.8248C26.7271 19.5609 27.2952 19.0469 27.2952 18.4495Z" fill="#E5FFFF"/>
<path d="M96.5723 19.1441C96.5723 18.2411 95.2837 17.5048 93.7042 17.5048C93.6765 17.5048 93.6488 17.5048 93.6072 17.5048C93.1361 16.0322 90.8777 14.9207 88.162 14.9207C85.8482 14.9207 83.8807 15.7265 83.0355 16.8657C82.4259 16.699 81.7886 16.6156 81.1512 16.6295C78.7265 16.6295 76.759 17.7548 76.759 19.1302C76.759 20.3806 78.3801 21.4225 80.5 21.6031C82.0379 21.881 84.4488 22.0616 87.1367 22.0616C91.7229 22.0616 95.0759 21.1863 95.159 20.5195C96.0042 20.2555 96.5723 19.7415 96.5723 19.1441Z" fill="#E5FFFF"/>
<path d="M135.229 7.3909C135.229 5.80714 132.97 4.52901 130.199 4.52901C130.144 4.52901 130.089 4.52901 130.033 4.52901C129.188 1.94497 125.225 0 120.473 0C116.427 0 112.949 1.41705 111.481 3.4176C110.4 3.12585 109.292 2.98692 108.169 2.98692C103.902 2.98692 100.452 4.95968 100.452 7.3909C100.452 9.59984 103.306 11.4198 107.019 11.7393C109.721 12.2394 113.933 12.559 118.686 12.559C126.736 12.559 132.624 11.0169 132.777 9.8638C134.245 9.36366 135.229 8.44674 135.229 7.3909Z" fill="#E5FFFF"/>
<path d="M77.4795 40.2749C74.6115 35.4124 68.9446 35.1901 68.9446 35.1901C68.9446 35.1901 63.4163 34.4816 59.8693 41.8725C56.5717 48.7633 51.9994 55.4179 59.1349 57.0294L60.4235 53.0144L61.2271 57.3351C62.2386 57.4045 63.2639 57.4323 64.2753 57.3906C71.9096 57.1406 79.1837 57.4601 78.9482 54.7093C78.6295 51.0695 80.2368 44.9428 77.4795 40.2749Z" fill="#000222"/>
<path d="M58.7331 82.8003C58.65 83.3282 58.5253 83.8562 58.3729 84.3841C58.1928 84.8842 57.9157 85.3566 57.7494 85.8706C57.2229 87.496 57.9572 89.316 59.1072 90.5663C60.1048 91.65 61.4072 92.4279 62.8343 92.7892C63.8735 93.0531 64.9681 93.0948 66.0349 93.1226C69.0139 93.2198 72.0759 93.3171 74.8886 92.3585C75.7753 92.0528 76.6482 91.65 77.4657 91.1915C77.7289 91.0665 77.9506 90.8859 78.1307 90.6636C78.3524 90.3579 78.3801 89.955 78.3663 89.5799C78.3663 88.3157 78.103 87.0515 78.1584 85.7873C78.1861 85.0926 78.3247 84.3841 78.2554 83.6895C78.0753 82.064 76.8976 80.7303 75.3042 80.3552C74.5006 80.1885 73.6693 80.2719 72.8518 80.3552C70.7319 80.5636 68.612 80.6609 66.4783 80.647C64.303 80.6331 62.1416 80.2996 59.9801 80.2719C59.3428 80.258 59.3566 80.4525 59.1488 81.0776C58.9964 81.6333 58.844 82.2029 58.7331 82.8003Z" fill="#2F2E41"/>
<path d="M64.8988 51.5279C64.7879 52.0697 64.6771 52.6393 64.3584 53.0978C63.9843 53.6118 63.3608 53.9175 62.959 54.4037C62.3494 55.1539 62.3078 56.1959 62.3078 57.1683C62.3078 58.0575 62.3217 59.0022 62.8205 59.7524C63.1392 60.2386 63.6241 60.572 64.109 60.8916C65.9657 62.1419 67.9747 63.42 70.2054 63.4617C71.1337 63.4756 72.1313 63.2394 72.741 62.5448C73.0042 62.2114 73.212 61.8502 73.3506 61.4473C73.9187 60.0302 74.2651 58.5298 74.3759 57.0155C74.4313 56.2931 74.4175 55.5568 74.1819 54.8899C73.9048 54.1258 73.3645 53.5007 72.9904 52.7783C72.5608 51.9169 72.4084 50.9583 72.547 49.9997C72.5608 49.9303 72.5608 49.8608 72.5331 49.8052C72.4777 49.7358 72.3807 49.6941 72.2976 49.708L67.8639 49.3884C67.4482 49.3745 67.0325 49.319 66.6307 49.2495C66.3952 49.1939 65.7578 48.8605 65.5361 48.9439C65.0928 49.0967 64.9819 51.0695 64.8988 51.5279Z" fill="#FFB8B8"/>
<path opacity="0.1" d="M64.8988 51.5279C64.7879 52.0697 64.6771 52.6393 64.3584 53.0978C63.9843 53.6118 63.3608 53.9175 62.959 54.4037C62.3494 55.1539 62.3078 56.1959 62.3078 57.1683C62.3078 58.0575 62.3217 59.0022 62.8205 59.7524C63.1392 60.2386 63.6241 60.572 64.109 60.8916C65.9657 62.1419 67.9747 63.42 70.2054 63.4617C71.1337 63.4756 72.1313 63.2394 72.741 62.5448C73.0042 62.2114 73.212 61.8502 73.3506 61.4473C73.9187 60.0302 74.2651 58.5298 74.3759 57.0155C74.4313 56.2931 74.4175 55.5568 74.1819 54.8899C73.9048 54.1258 73.3645 53.5007 72.9904 52.7783C72.5608 51.9169 72.4084 50.9583 72.547 49.9997C72.5608 49.9303 72.5608 49.8608 72.5331 49.8052C72.4777 49.7358 72.3807 49.6941 72.2976 49.708L67.8639 49.3884C67.4482 49.3745 67.0325 49.319 66.6307 49.2495C66.3952 49.1939 65.7578 48.8605 65.5361 48.9439C65.0928 49.0967 64.9819 51.0695 64.8988 51.5279Z" fill="black"/>
<path d="M69.1385 52.1253C72.7351 52.1253 75.6506 49.2019 75.6506 45.5957C75.6506 41.9896 72.7351 39.0662 69.1385 39.0662C65.542 39.0662 62.6265 41.9896 62.6265 45.5957C62.6265 49.2019 65.542 52.1253 69.1385 52.1253Z" fill="#FFB8B8"/>
<path d="M65.7994 60.2247C66.1319 60.5859 66.4922 60.9333 66.9494 61.1417C67.4066 61.3361 67.8916 61.4195 68.3765 61.4195C69.5542 61.4473 70.8289 61.2389 71.6464 60.3914C72.6994 59.2939 72.6578 57.5434 73.4892 56.2653C73.5584 56.1542 73.6416 56.0569 73.7524 55.9736C73.891 55.9041 74.0434 55.8624 74.2096 55.8624C75.2488 55.8485 76.1633 56.5293 76.9807 57.1822C77.341 57.474 77.7289 57.7657 77.9506 58.1825C78.1169 58.502 78.2277 58.8355 78.2831 59.1967C78.6849 61.1833 78.8235 63.2256 78.9482 65.2539C79.0175 66.3792 79.0868 67.4906 79.0868 68.6159C79.0729 72.3114 78.2139 75.9512 77.3548 79.5494C77.244 80.0079 77.0916 80.5358 76.6759 80.7581C76.4819 80.8415 76.288 80.897 76.0801 80.897C73.6416 81.1888 71.1892 81.4666 68.7368 81.5083C67.7807 81.5222 66.8247 81.4944 65.8548 81.4388C65.6886 81.4388 65.5223 81.4111 65.3699 81.3555C65.1621 81.2582 64.9819 81.1054 64.8434 80.9109C63.5133 79.2299 63.4301 76.9098 63.444 74.7704C63.4578 69.5328 63.6518 64.2953 63.9982 59.0578C64.0259 58.6271 64.0398 58.0992 63.7211 57.7657C64.303 58.6271 65.0789 59.4606 65.7994 60.2247Z" fill="#D0CDE1"/>
<path d="M64.4277 52.681C64.206 53.0839 62.5849 54.0703 62.2663 54.4037C60.5205 56.2514 57.3199 56.182 55.7265 58.1686C55.1584 58.8633 54.8675 59.7385 54.6596 60.6137C54.3548 61.8502 54.1886 63.1839 54.7012 64.3509C55.1861 65.4623 56.2253 66.2403 56.9181 67.2405C57.694 68.3381 58.0265 69.6718 58.359 70.9638C58.6084 71.9224 58.844 72.9088 58.7608 73.8951C58.65 75.0204 58.1096 76.0346 57.791 77.1182C57.4723 78.2019 57.4169 79.48 58.1512 80.3274C58.6916 80.9526 59.5367 81.2027 60.3542 81.3416C61.3934 81.4944 62.4464 81.5917 63.4994 81.6195C64.4277 81.6611 65.453 81.675 66.1596 81.0776C66.7277 80.6053 66.9633 79.8412 67.0048 79.1049C67.0464 78.3686 66.8801 77.6461 66.7831 76.9098C66.6861 76.1596 66.6446 75.3955 66.6169 74.6314C66.4783 71.2138 66.4506 67.7962 66.5614 64.3786C66.5892 63.6701 66.603 62.9477 66.4645 62.2531C66.2705 61.3361 65.7717 60.5165 65.356 59.6829C64.5386 58.0158 64.1506 56.3904 64.2753 54.5426C64.4139 52.6532 65.2036 51.264 64.4277 52.681Z" fill="#FF0068"/>
<path d="M73.5723 52.8199C73.9048 53.1673 75.041 53.2784 75.4705 53.5007C75.8723 53.6813 76.288 53.8341 76.7175 53.9314C78.2693 54.3759 79.7518 55.0567 81.1096 55.9458C81.3868 56.1125 81.6361 56.3209 81.844 56.5849C82.0795 56.9183 82.1626 57.3351 82.2458 57.738C82.4536 58.7799 82.6614 59.8219 82.6199 60.8777C82.5645 62.003 82.2319 63.0866 81.8994 64.1564L80.6524 68.1575C79.7241 71.1444 78.7819 74.1591 78.5187 77.2849C78.3801 79.0076 78.4355 80.7581 78.7126 82.4669C78.7404 82.6336 78.7681 82.842 78.6434 82.9671C78.5602 83.0504 78.4494 83.0921 78.3386 83.106C77.7428 83.2032 77.147 82.8976 76.6066 82.6197C74.944 81.7862 73.1566 81.2027 71.3139 80.8832C72.0343 79.8412 72.5886 78.702 72.9626 77.4933C73.1705 76.7292 73.3367 75.9513 73.4614 75.1594L74.0434 71.7973C74.2789 70.5609 74.4452 69.3244 74.5422 68.0741C74.5837 67.6018 74.556 67.1294 74.459 66.6709C74.3205 66.2264 74.1542 65.8096 73.9325 65.4067C72.9765 63.4062 72.5193 61.1278 72.9072 58.9466C73.0735 57.988 73.3922 57.0294 73.2536 56.0708C73.1289 55.1539 73.2536 54.4315 73.0181 53.5146C72.0482 49.7636 72.9349 52.167 73.5723 52.8199Z" fill="#FF0068"/>
<path d="M55.7127 61.3223C55.2831 62.2253 54.5488 63.0033 54.2994 63.9758C54.2024 64.4342 54.1608 64.8927 54.1747 65.365C54.1747 66.0736 54.1608 66.7821 54.3825 67.4489C54.5211 67.8796 54.7428 68.2825 54.909 68.6993C55.1307 69.2828 55.2416 69.9218 55.2 70.547C55.1584 71.4222 54.8536 72.2697 54.8398 73.1449C54.7982 74.5203 55.4355 75.8123 56.059 77.0488C56.6548 75.5761 58.3175 74.8676 59.7862 75.465C59.9386 75.5206 60.0771 75.6039 60.2157 75.6873C60.3819 75.5345 60.3958 75.2844 60.4096 75.0621C60.4512 73.4645 60.4928 71.8668 60.5482 70.2691C60.6175 67.7962 60.6729 65.2956 60.1187 62.8921C59.8693 61.8085 59.4675 60.7249 58.7331 59.8774C58.3452 59.4329 57.0428 58.2659 56.4193 58.766C56.1422 58.9883 56.1976 59.5996 56.156 59.9052C56.0729 60.4053 55.9205 60.8777 55.7127 61.3223Z" fill="#FF0068"/>
<path d="M82.7446 58.6965C82.9524 59.3356 82.9663 60.0302 82.9663 60.711C82.9801 62.0863 82.9524 63.4756 82.9108 64.851C82.8831 65.5595 82.8554 66.268 82.6476 66.9488C82.509 67.3933 82.2873 67.8101 82.1488 68.2547C81.7193 69.5884 81.9548 71.0193 81.9825 72.4225C82.0102 72.8809 81.9687 73.3255 81.8717 73.7701C81.6361 74.6314 81.0265 75.34 80.597 76.1179C80.1813 76.8681 79.9458 77.7017 79.447 78.3963C78.9482 79.091 78.103 79.6467 77.2855 79.4244C76.662 79.2577 76.2187 78.7159 75.9139 78.1463C75.2488 76.8959 75.0133 75.465 75.2627 74.0757C75.5675 72.3808 76.5651 70.8804 76.9253 69.1855C77.4241 66.8654 76.6759 64.4898 76.6898 62.1141C76.6759 61.739 76.7313 61.3778 76.8422 61.0166C77.0361 60.4748 77.438 60.0441 77.812 59.6135C78.2831 59.0716 78.7127 58.502 79.1145 57.9046C79.3777 57.5018 79.738 56.4737 80.2229 56.3903C81.2482 56.1959 82.4813 57.8769 82.7446 58.6965Z" fill="#FF0068"/>
<path d="M50.2398 81.7723C49.6578 81.6194 49.0482 81.5639 48.4524 81.5778C45.9861 81.7167 44.1018 83.8284 44.2404 86.2874C44.2542 86.4819 44.2681 86.6625 44.3096 86.8431C44.462 87.5238 44.6976 88.1768 45.0163 88.7881C45.4873 89.7467 46.0554 90.7191 46.9422 91.3304C47.4548 91.6916 48.0506 91.9139 48.6325 92.1362L53.2602 93.8867C53.9391 94.1367 54.6181 94.4007 55.3108 94.6369C58.7608 95.8317 62.3632 96.5541 66.0072 96.7625C67.1156 96.8319 68.2379 96.8458 69.3325 96.5957C69.5958 96.5402 69.859 96.4429 70.0114 96.2206C70.0945 96.0678 70.15 95.9011 70.1638 95.7205L70.4548 93.72C70.4964 93.4421 70.5379 93.1365 70.4271 92.8725C70.3024 92.5391 69.9699 92.3307 69.665 92.1501C66.6307 90.3996 63.0699 89.4271 60.5205 87.0376C59.9247 86.468 59.412 85.5789 58.6777 85.1899C57.8464 84.7592 56.8765 84.5091 56.0175 84.1062C54.1054 83.2449 52.2626 82.2307 50.2398 81.7723Z" fill="#2F2E41"/>
<path opacity="0.1" d="M54.8536 84.4675C56.4886 84.9815 63.3886 88.538 64.5663 89.7744C64.4139 89.83 59.0241 86.8153 58.8717 86.7597C57.403 86.3152 55.9343 85.8706 54.5349 85.2315C54.2578 85.1065 52.7199 84.4952 52.7892 84.134C52.8584 83.7311 54.5627 84.3702 54.8536 84.4675Z" fill="black"/>
<path d="M75.2349 97.8183C75.3319 97.8183 75.4151 97.8044 75.4982 97.7349C75.5675 97.6516 75.5952 97.5404 75.5813 97.4293C75.5813 96.5263 75.5813 95.6094 75.5675 94.7063C74.7916 94.3312 73.9187 94.2201 73.0596 94.0951L69.0693 93.5533C69.1663 93.5671 68.4458 95.2759 68.5566 95.5121C68.7506 95.915 70.2331 96.2762 70.6488 96.4568C72.0898 97.1515 73.6 97.8739 75.2349 97.8183Z" fill="#FFB8B8"/>
<path d="M62.6958 94.7063C61.9476 94.8314 61.1024 94.9286 60.6036 95.526C59.9801 96.2762 60.2434 97.3876 60.5482 98.3184C60.5898 98.4991 60.6867 98.6797 60.8114 98.8186C61.0193 99.0131 61.3241 99.0409 61.6012 99.0686C62.294 99.1103 63.0283 99.152 63.6241 98.8047C63.9012 98.6241 64.1644 98.4296 64.4138 98.2212C64.8572 97.9294 65.3422 97.7072 65.8548 97.5543C66.797 97.2626 67.7668 97.0542 68.7506 96.957C69.1385 96.9431 69.5265 96.8736 69.8867 96.7486C70.247 96.6096 70.5795 96.3457 70.6903 95.9706C70.8289 95.4704 70.5379 94.9703 70.2747 94.5396C69.9283 93.9978 69.568 93.4282 69.0554 93.0392C68.3072 92.4557 67.947 92.9003 67.1988 93.2754C65.7717 93.97 64.2614 94.4563 62.6958 94.7063Z" fill="#FFB8B8"/>
<path d="M60.7283 95.3871L55.9343 93.97C55.3524 93.8033 54.7566 93.6227 54.147 93.6227C53.5373 93.6227 52.9 93.8172 52.5121 94.2896C52.138 94.7202 52.041 95.3176 51.944 95.8872L51.75 97.0959C51.653 97.7072 51.5422 98.3462 51.6392 98.9575C51.7361 99.5688 52.041 100.194 52.5952 100.486C53.2602 100.847 54.0777 100.666 54.8121 100.513C56.3084 100.208 57.8325 100.041 59.3566 100.027C59.9247 100.027 60.5343 100.027 61.0331 99.7633C61.6289 99.4437 61.9892 98.763 62.0584 98.0823C62.1416 97.0681 61.7952 95.7066 60.7283 95.3871Z" fill="#2F2E41"/>
<path d="M77.1193 94.1506C77.7428 94.0395 78.2831 93.6922 78.8789 93.4838C79.7102 93.1921 80.6247 93.192 81.5115 93.192C81.844 93.192 82.1904 93.2059 82.4536 93.3865C82.8416 93.6505 82.9386 94.1645 83.0078 94.6369L83.4096 97.4432C83.4789 97.9711 83.5621 98.513 83.4374 99.0409C83.3127 99.5688 82.9663 100.069 82.4536 100.194C81.8301 100.361 81.2066 99.9578 80.6247 99.6938C79.1422 99.0409 77.4241 99.2076 75.8862 98.7074C75.5952 98.6102 75.2904 98.4713 75.1795 98.1934C75.1241 98.0406 75.1103 97.8739 75.1241 97.7072C75.1518 96.8041 74.9578 95.5677 75.2349 94.7064C75.4843 93.9423 76.4265 94.1506 77.1193 94.1506Z" fill="#2F2E41"/>
<path d="M87.2614 80.6331C88.2175 80.3969 89.2151 80.3274 90.1988 80.4386C90.9886 80.5219 91.7922 80.7442 92.3602 81.286C93.053 81.9529 93.2747 82.967 93.3024 83.9395C93.3301 85.8567 92.6928 87.7183 91.5151 89.2187C91.2241 89.5938 90.8777 89.9273 90.4898 90.2051C90.0741 90.4691 89.6169 90.6914 89.1596 90.8442L78.8096 94.9425C76.0801 96.0262 73.3506 97.0959 70.5102 97.8044C70.1916 97.9572 69.8036 97.8183 69.6512 97.4988V97.4849C68.7506 96.179 67.9885 94.7897 67.3789 93.3171C67.2819 93.192 67.2958 93.0253 67.4205 92.9281C67.4482 92.9142 67.4759 92.8864 67.5036 92.8864L74.8331 88.663C75.3596 88.3574 75.8861 88.0518 76.3295 87.635C76.6482 87.3293 76.9114 86.9681 77.0916 86.5652C77.244 86.2457 77.2578 85.4955 77.4518 85.2593C77.6458 85.0232 78.297 85.0093 78.5879 84.9259C79.0175 84.8009 79.4193 84.6342 79.8349 84.4536C81.4699 83.7173 82.9386 82.6475 84.5042 81.7862C85.3355 81.2999 86.2777 80.897 87.2614 80.6331Z" fill="#2F2E41"/>
<path opacity="0.1" d="M83.1048 83.7867C81.844 84.7314 80.2229 85.6066 78.9759 86.5791C78.5464 86.9126 71.4524 90.9137 71.3554 91.4416C72.5193 91.6361 79.9319 86.4402 80.9849 85.9262C82.038 85.4121 82.9801 84.6758 83.9223 83.9534C84.1578 83.7728 85.1693 83.2171 84.4904 83.0087C84.1024 82.8837 83.3958 83.5922 83.1048 83.7867Z" fill="black"/>
<path d="M76.2048 39.8025L70.6072 36.8712L62.8759 38.0659L61.2687 45.1512L65.259 44.9984L66.3675 42.4004V44.9567L68.2102 44.8872L69.2771 40.7472L69.9422 45.1512L76.4681 45.0262L76.2048 39.8025Z" fill="#000222"/>
<path d="M74.9578 54.3481H62.9036V68.9354H74.9578V54.3481Z" fill="#3F3D56"/>
<path d="M57.1813 79.7161C57.4584 80.1329 57.7771 80.5358 58.2205 80.7581C58.7885 81.0221 59.4536 81.0082 60.0217 80.7164C60.5759 80.4247 61.0193 79.9662 61.3241 79.4105C61.9337 78.3269 62.0584 77.0488 61.9891 75.8123C61.9199 74.5759 61.6566 73.3533 61.5319 72.1308C61.4488 71.2277 61.4349 70.3386 61.4349 69.4356C61.4072 69.2411 61.4488 69.0605 61.5458 68.8938C61.6843 68.7132 61.9337 68.6576 62.1416 68.5881C63.3747 68.2269 64.1922 67.0738 64.7741 65.9207C65.162 65.1566 65.5084 64.3231 65.4253 63.4617C65.3422 62.6004 64.7325 61.739 63.8873 61.6557C63.1807 61.5862 62.5434 62.0308 62.0307 62.517C60.756 63.7674 59.9385 65.4067 59.703 67.185C59.5922 68.0602 59.6199 68.9493 59.3843 69.7968C58.8855 71.6028 57.306 72.7003 56.5163 74.3258C55.6572 76.1041 56.1283 78.1324 57.1813 79.7161Z" fill="#FFB8B8"/>
<path d="M80.3614 72.8393C80.0012 73.6867 79.3084 74.3397 78.4632 74.6731C77.9367 74.8815 77.3548 74.9232 76.8145 74.7704C76.2602 74.6175 75.8169 74.2147 75.5952 73.6867C75.512 73.4228 75.4705 73.1449 75.4566 72.8671C75.3735 71.6584 75.4151 70.3942 75.8446 69.2689C76.0108 68.8243 76.2464 68.4214 76.3711 67.9629C76.5096 67.4489 76.5651 66.9071 76.5651 66.3792L76.7036 63.0588C76.7313 62.8227 76.7175 62.5726 76.6482 62.3364C76.5096 61.8502 76.0524 61.5445 75.6506 61.2528C74.653 60.5582 73.6831 59.7524 73.1982 58.641C73.0319 58.3075 72.9765 57.9324 73.0319 57.5573C73.1705 56.9044 73.8355 56.4737 74.4867 56.3348C76.2464 55.9458 77.9783 57.0572 78.3524 58.8216C78.3663 58.8632 78.3663 58.9188 78.3801 58.9605C78.4494 59.3356 78.4494 59.7107 78.4771 60.0997C78.5602 60.9055 78.8096 61.6696 78.9759 62.4615C79.3638 64.4064 79.1699 66.4209 79.5578 68.3658C79.8904 69.9913 81.1096 71.061 80.3614 72.8393Z" fill="#FFB8B8"/>
<path d="M5.76385 93.1087H5.48674C5.59758 90.0245 5.91626 86.9404 6.47048 83.8979C7.66204 77.3822 9.65722 73.1033 12.3867 71.1861L12.5391 71.4083C6.17951 75.8957 5.76385 92.942 5.76385 93.1087Z" fill="#2F2E41"/>
<path d="M9.2277 93.0392H8.95059C8.95059 92.7336 9.13071 85.4816 11.9711 83.4811L12.1235 83.7034C9.40782 85.6205 9.2277 92.9698 9.2277 93.0392Z" fill="#2F2E41"/>
<path d="M14.1325 71.4361C14.8978 71.4361 15.5181 70.8141 15.5181 70.0469C15.5181 69.2796 14.8978 68.6576 14.1325 68.6576C13.3673 68.6576 12.747 69.2796 12.747 70.0469C12.747 70.8141 13.3673 71.4361 14.1325 71.4361Z" fill="#FF0068"/>
<path d="M13.4398 83.3838C14.205 83.3838 14.8253 82.7618 14.8253 81.9946C14.8253 81.2273 14.205 80.6053 13.4398 80.6053C12.6745 80.6053 12.0542 81.2273 12.0542 81.9946C12.0542 82.7618 12.6745 83.3838 13.4398 83.3838Z" fill="#FF0068"/>
<path d="M8.59036 72.2697C8.85362 73.9368 8.1747 75.4233 8.1747 75.4233C8.1747 75.4233 7.08012 74.2146 6.81686 72.5475C6.55361 70.8804 7.23253 69.3939 7.23253 69.3939C7.23253 69.3939 8.32711 70.6026 8.59036 72.2697Z" fill="#2F2E41"/>
<path d="M13.1211 76.3124C11.5277 76.8542 9.9482 76.4514 9.9482 76.4514C9.9482 76.4514 10.9458 75.1594 12.5392 74.6036C14.1325 74.0479 15.7121 74.4647 15.7121 74.4647C15.7121 74.4647 14.7006 75.7706 13.1211 76.3124Z" fill="#2F2E41"/>
<path d="M13.1627 86.8987C12.4422 87.121 11.6801 87.1626 10.9319 86.9959C11.888 85.7734 13.4675 85.2316 14.9777 85.6067C14.4928 86.1902 13.8693 86.6347 13.1627 86.8987Z" fill="#2F2E41"/>
</svg>
