<svg width="147" height="103" viewBox="0 0 147 103" fill="none" xmlns="http://www.w3.org/2000/svg">
<g clip-path="url(#clip0)">
<path d="M106.754 98.7289H0V99.0819H106.754V98.7289Z" fill="#E6E6E6"/>
<path d="M31.0345 94.4226H37.1815L41.1093 59.9539L48.3483 94.4226H52.4874V53.3179L32.7606 47.4054L31.0345 94.4226Z" fill="#2F2E41"/>
<path d="M50.6204 99.5232L56.38 100.582C57.1726 100.688 57.9123 100.141 58.0532 99.3467C58.1589 98.7289 57.8771 98.1112 57.3311 97.7759L55.059 96.4346L52.4874 92.6929L48.0313 93.5577V96.5581C48.0313 98.0583 49.1409 99.329 50.6204 99.5232Z" fill="#2F2E41"/>
<path d="M34.8918 103C36.5827 102.965 37.9213 101.553 37.8861 99.8585C37.8861 99.7702 37.8861 99.682 37.8684 99.5937L37.2344 93.8401H31.7567V99.9291C31.7567 101.623 33.1305 103 34.8214 103C34.839 103 34.8742 103 34.8918 103Z" fill="#2F2E41"/>
<path d="M41.5144 16.0077C44.4716 16.0077 46.8688 13.6056 46.8688 10.6424C46.8688 7.67921 44.4716 5.27708 41.5144 5.27708C38.5572 5.27708 36.16 7.67921 36.16 10.6424C36.16 13.6056 38.5572 16.0077 41.5144 16.0077Z" fill="#FFA4A4"/>
<path d="M36.6531 21.726H46.4461C45.0899 19.2728 44.2444 16.8372 44.72 14.3663H38.2383C38.3616 16.2019 37.5866 18.9022 36.6531 21.726Z" fill="#FFA4A4"/>
<path d="M33.2009 48.2702C38.9429 52.7707 45.3012 55.0475 52.4874 54.1827C49.458 43.505 48.5597 32.8979 51.4835 22.4496L45.4421 19.6964L37.2344 19.2551L32.3027 20.7024C30.876 21.1259 29.9073 22.4496 29.9249 23.9498C30.101 32.8802 30.9112 41.2282 33.2009 48.2702Z" fill="#E6E6E6"/>
<path d="M53.192 62.6719C54.4249 62.7425 55.4817 61.7894 55.5521 60.5363C55.5697 60.3422 55.5521 60.148 55.5169 59.9715L54.5129 55.0298H52.0647L51.1136 59.9892C50.8846 61.207 51.6772 62.3895 52.8925 62.6189C52.9806 62.6542 53.0863 62.6719 53.192 62.6719Z" fill="#FFA4A4"/>
<path d="M36.6355 55.3828C37.6747 54.6945 37.9565 53.3002 37.2696 52.2589C37.1639 52.1001 37.0406 51.9589 36.8997 51.8353L33.1657 48.4644L31.193 49.9292L33.3771 54.4827C33.9055 55.5946 35.2617 56.0711 36.3713 55.5416C36.4594 55.4887 36.5475 55.4357 36.6355 55.3828Z" fill="#FFA4A4"/>
<path d="M31.4749 51.0058L33.7822 48.835L31.1754 37.1513L32.5493 20.6318C29.5726 21.5672 26.3846 24.0733 25.8562 27.1619L23.9716 38.1573L31.4749 51.0058Z" fill="#E6E6E6"/>
<path d="M51.3426 55.0475L55.0766 55.4887L54.1959 27.6385C54.1078 25.097 52.5579 22.8379 50.2153 21.8672L48.8767 21.3024L49.229 34.3628L51.3426 55.0475Z" fill="#E6E6E6"/>
<path d="M36.3889 7.94208C36.8997 6.97138 37.5514 5.02999 38.6082 4.65936C39.1894 4.46522 39.7883 4.34167 40.3871 4.27108L42.1485 4.95939L41.1797 4.20048C41.3735 4.18283 41.5496 4.18283 41.7434 4.16518L42.9411 4.62406L42.3246 4.14753C43.4342 4.12988 44.5791 4.25343 45.4421 4.92409C46.1819 5.50651 46.904 7.695 47.0273 8.6304C47.1506 9.51285 47.1154 10.4306 46.904 11.2954L46.6046 11.5778C46.4989 11.3307 46.4109 11.0836 46.3756 10.8189C46.1643 9.83053 45.5302 9.00103 44.6671 8.4892L44.6495 8.47156C44.1388 8.18917 43.5223 8.20682 42.9411 8.22447L40.1758 8.33036C39.5065 8.34801 38.8019 8.40096 38.2736 8.80689C37.9213 9.08927 37.7099 9.51285 37.5162 9.90113C37.252 10.413 36.7588 12.3896 36.7588 12.3896C36.7588 12.3896 36.477 12.019 36.3361 12.3014C36.1247 11.5778 35.9838 10.8365 35.9486 10.0953C35.8958 9.37166 36.0543 8.61275 36.3889 7.94208Z" fill="#C7FF17"/>
<path opacity="0.2" d="M31.4044 30.8859L29.5198 38.3867L33.7822 49.0291L30.5413 38.9692L31.4044 30.8859Z" fill="black"/>
<path opacity="0.2" d="M49.9335 34.7687L51.3778 50.847L48.9295 34.8922L49.9335 34.7687Z" fill="black"/>
<path d="M102.985 60.8187C103.938 60.8187 104.711 60.0443 104.711 59.0891C104.711 58.1339 103.938 57.3595 102.985 57.3595C102.031 57.3595 101.258 58.1339 101.258 59.0891C101.258 60.0443 102.031 60.8187 102.985 60.8187Z" fill="#E6E6E6"/>
<path d="M110.206 60.8187C111.159 60.8187 111.932 60.0443 111.932 59.0891C111.932 58.1339 111.159 57.3595 110.206 57.3595C109.253 57.3595 108.48 58.1339 108.48 59.0891C108.48 60.0443 109.253 60.8187 110.206 60.8187Z" fill="#E6E6E6"/>
<path d="M117.427 60.8187C118.381 60.8187 119.153 60.0443 119.153 59.0891C119.153 58.1339 118.381 57.3595 117.427 57.3595C116.474 57.3595 115.701 58.1339 115.701 59.0891C115.701 60.0443 116.474 60.8187 117.427 60.8187Z" fill="#E6E6E6"/>
<path d="M145.732 0H91.9411C91.2365 0 90.6729 0.56477 90.6729 1.27073V8.61275H91.1837V1.27073C91.1837 0.847156 91.5184 0.511823 91.9411 0.511823H145.75C146.172 0.511823 146.507 0.847156 146.507 1.27073V44.3698C146.507 44.7934 146.172 45.1287 145.75 45.1287H138.299V45.6405H145.75C146.454 45.6405 147.018 45.0757 147.018 44.3698V1.27073C147 0.56477 146.436 0 145.732 0Z" fill="#E6E6E6"/>
<path d="M137.101 8.11858H83.3106C82.606 8.11858 82.0424 8.68335 82.0424 9.38931V52.4883C82.0424 53.1943 82.606 53.7591 83.3106 53.7591H137.119C137.824 53.7591 138.387 53.1943 138.387 52.4883V9.38931C138.37 8.68335 137.806 8.11858 137.101 8.11858ZM137.876 52.4883C137.876 52.9119 137.542 53.2473 137.119 53.2473H83.3106C82.8879 53.2473 82.5532 52.9119 82.5532 52.4883V9.38931C82.5532 8.96573 82.8879 8.6304 83.3106 8.6304H137.119C137.542 8.6304 137.876 8.96573 137.876 9.38931V52.4883Z" fill="#000222"/>
<path d="M110.206 43.5403C103.249 43.5403 97.6125 37.8926 97.6125 30.9212C97.6125 23.9498 103.249 18.3021 110.206 18.3021C117.163 18.3021 122.799 23.9498 122.799 30.9212C122.782 37.8926 117.163 43.5403 110.206 43.5403Z" fill="#9327FF"/>
<path d="M115.173 29.6857H111.456V25.9618C111.456 25.2735 110.893 24.7263 110.206 24.7263C109.519 24.7263 108.973 25.2911 108.973 25.9618V29.6857H105.257C104.57 29.6857 104.024 30.2505 104.024 30.9388C104.024 31.6271 104.587 32.1743 105.257 32.1743H108.973V35.8982C108.973 36.5865 109.537 37.1336 110.224 37.1336C110.91 37.1336 111.456 36.5689 111.456 35.8982V32.1743H115.173C115.86 32.1743 116.423 31.6271 116.423 30.9388C116.423 30.2505 115.86 29.6857 115.173 29.6857Z" fill="white"/>
<path d="M19.0927 88.1924C18.8109 86.4275 18.2825 84.6979 17.5075 83.0918L17.4019 82.8624L16.5564 83.7978L17.1729 82.4035L17.1377 82.3153C16.5917 81.221 15.9752 80.1621 15.3059 79.1384L15.1826 78.9443L15.0241 79.1208L15.1474 78.8914L15.0945 78.8031C14.2667 77.5677 13.6326 76.7735 13.6326 76.7735L13.4565 76.544L13.3332 76.8088C13.3156 76.8617 11.2196 81.6976 10.9378 86.4805V86.5511L12.3469 88.263L10.9026 87.3629V87.6982C10.9026 88.263 10.9378 88.8278 11.0083 89.3749C11.0787 89.8514 11.1492 90.328 11.2372 90.7868C11.3781 90.7868 11.5014 90.8398 11.6247 90.9104C11.5191 90.3986 11.431 89.8691 11.3605 89.3396C11.3077 88.916 11.2725 88.4748 11.2549 88.0336L14.0377 89.7808L11.2901 86.4452C11.5367 82.4035 13.1042 78.3266 13.527 77.25C13.7559 77.55 14.1963 78.1501 14.7423 78.9443L13.7735 81.0975L15.1474 79.5797C15.7462 80.5151 16.2922 81.4681 16.7854 82.4565L15.3059 85.7745L17.3138 83.5507C18.0183 85.0509 18.4939 86.6569 18.7581 88.2983C19.1104 90.9457 19.0399 93.5048 18.5643 95.4815C18.1064 97.3699 17.3138 98.5348 16.3627 98.676C16.1689 98.7113 15.9752 98.6936 15.7815 98.6407C15.6229 98.7466 15.4468 98.7995 15.2531 98.7995H15.2002C15.4996 98.9584 15.8167 99.0466 16.1513 99.0642C16.2394 99.0642 16.3098 99.0643 16.3979 99.0466C17.5075 98.8878 18.3882 97.6523 18.899 95.5874C19.3922 93.5048 19.4626 90.8927 19.0927 88.1924Z" fill="#E6E6E6"/>
<path d="M15.9928 98.8701C14.5485 98.8701 12.4526 98.0759 10.3742 96.611C10.0748 96.3993 9.77535 96.1522 9.49354 95.9051L9.26456 95.6933L10.1452 95.4462L8.98275 95.4109L8.92991 95.358C6.72826 93.0636 5.37204 89.7985 5.35443 89.7808L5.24875 89.5161L5.53056 89.5338C5.56579 89.5338 6.21748 89.5691 7.20382 89.7102H7.27427L7.48563 89.7455C8.29584 89.8691 9.08843 90.0456 9.88103 90.2574L9.96909 90.275L10.2333 90.928L10.1981 90.3456L10.4447 90.4162C11.5895 90.7515 12.6815 91.2457 13.6679 91.9164C16.8206 94.1225 18.5643 96.8934 17.6485 98.2171C17.3314 98.6583 16.7502 98.8701 15.9928 98.8701ZM9.98671 95.8521C10.1805 96.011 10.3742 96.1698 10.5856 96.311C13.4741 98.3407 16.5741 99.0996 17.3666 97.9877C18.1416 96.8758 16.3627 94.2108 13.4741 92.1811C12.5759 91.5811 11.6071 91.1222 10.5856 90.8045L10.7441 93.0812L9.72251 90.5398C9.05321 90.3633 8.34868 90.2044 7.66176 90.0985L7.76744 91.7575L7.06291 90.0103C6.5169 89.9397 6.07657 89.8867 5.81237 89.8691C6.18225 90.681 7.37995 93.1695 9.14127 95.0226L12.3645 95.1462L9.98671 95.8521Z" fill="#E6E6E6"/>
</g>
<defs>
<clipPath id="clip0">
<rect width="147" height="103" fill="white"/>
</clipPath>
</defs>
</svg>
