<svg width="33" height="32" viewBox="0 0 33 32" fill="none" xmlns="http://www.w3.org/2000/svg">
<g clip-path="url(#clip0)">
<circle cx="16" cy="16.5" r="15.5" transform="rotate(90 16 16.5)" fill="#9327FF"/>
<path d="M14.6752 22.71L7.48121 14.487C6.63221 13.518 7.32221 12 8.61071 12L22.9987 12C23.2871 11.9998 23.5694 12.0826 23.8119 12.2387C24.0544 12.3948 24.2467 12.6175 24.3659 12.88C24.4851 13.1426 24.526 13.434 24.4839 13.7193C24.4417 14.0045 24.3182 14.2716 24.1282 14.4885L16.9342 22.7085C16.7934 22.8696 16.6198 22.9987 16.425 23.0872C16.2302 23.1757 16.0187 23.2215 15.8047 23.2215C15.5907 23.2215 15.3793 23.1757 15.1844 23.0872C14.9896 22.9987 14.816 22.8696 14.6752 22.7085L14.6752 22.71Z" fill="white"/>
</g>
<defs>
<clipPath id="clip0">
<rect width="32" height="32" fill="white" transform="translate(32.5) rotate(90)"/>
</clipPath>
</defs>
</svg>
