<svg width="24" height="25" viewBox="0 0 24 25" fill="none" xmlns="http://www.w3.org/2000/svg">
<g clip-path="url(#clip0)">
<path fill-rule="evenodd" clip-rule="evenodd" d="M15.663 16.163C15.8023 16.0235 15.9678 15.9129 16.1499 15.8374C16.332 15.7619 16.5272 15.7231 16.7243 15.7231C16.9214 15.7231 17.1166 15.7619 17.2987 15.8374C17.4808 15.9129 17.6462 16.0235 17.7855 16.163L23.5605 21.938C23.842 22.2193 24.0002 22.6008 24.0003 22.9987C24.0005 23.3966 23.8426 23.7783 23.5613 24.0597C23.28 24.3412 22.8985 24.4994 22.5006 24.4996C22.1027 24.4997 21.721 24.3418 21.4395 24.0605L15.6645 18.2855C15.5251 18.1462 15.4144 17.9808 15.339 17.7987C15.2635 17.6166 15.2246 17.4214 15.2246 17.2242C15.2246 17.0271 15.2635 16.8319 15.339 16.6498C15.4144 16.4677 15.5251 16.3023 15.6645 16.163H15.663Z" fill="#000222"/>
<path fill-rule="evenodd" clip-rule="evenodd" d="M9.75 18.5C10.8334 18.5 11.9062 18.2866 12.9071 17.872C13.9081 17.4574 14.8175 16.8497 15.5836 16.0836C16.3497 15.3175 16.9574 14.4081 17.372 13.4071C17.7866 12.4062 18 11.3334 18 10.25C18 9.16659 17.7866 8.0938 17.372 7.09286C16.9574 6.09193 16.3497 5.18245 15.5836 4.41637C14.8175 3.65029 13.9081 3.0426 12.9071 2.62799C11.9062 2.21339 10.8334 2 9.75 2C7.56196 2 5.46354 2.86919 3.91637 4.41637C2.36919 5.96354 1.5 8.06196 1.5 10.25C1.5 12.438 2.36919 14.5365 3.91637 16.0836C5.46354 17.6308 7.56196 18.5 9.75 18.5ZM19.5 10.25C19.5 12.8359 18.4728 15.3158 16.6443 17.1443C14.8158 18.9728 12.3359 20 9.75 20C7.16414 20 4.68419 18.9728 2.85571 17.1443C1.02723 15.3158 0 12.8359 0 10.25C0 7.66414 1.02723 5.18419 2.85571 3.35571C4.68419 1.52723 7.16414 0.5 9.75 0.5C12.3359 0.5 14.8158 1.52723 16.6443 3.35571C18.4728 5.18419 19.5 7.66414 19.5 10.25Z" fill="#000222"/>
</g>
<defs>
<clipPath id="clip0">
<rect width="24" height="24" fill="white" transform="translate(0 0.5)"/>
</clipPath>
</defs>
</svg>
