<svg width="220" height="215" viewBox="0 0 220 215" fill="none" xmlns="http://www.w3.org/2000/svg">
<g clip-path="url(#clip0)">
<path d="M69.7196 150.109C69.204 152.874 67.845 155.451 67.0014 158.17C65.9235 161.778 65.8766 165.668 65.1737 169.37C63.4397 178.837 57.6753 187.554 58.2845 197.161C62.8773 184.18 67.47 171.198 72.0628 158.216C73.9374 152.921 75.812 147.203 74.3592 141.767C73.2344 137.736 70.3757 134.362 69.6258 130.238C69.0635 127.192 69.6727 123.911 68.5948 121.006C68.4542 120.584 68.2199 120.162 67.845 119.928C67.142 119.459 61.3776 109.102 61.0027 109.852C58.9406 113.695 66.0641 131.222 67.2357 134.971C68.7354 139.845 70.7037 144.907 69.7196 150.109Z" fill="#B870FF"/>
<path d="M87.1534 197.442C86.7316 199.083 86.3567 200.676 85.9349 202.176C82.3263 215.532 88.7936 214.126 90.3402 208.268C91.09 205.316 91.8399 202.363 92.5428 199.411C92.1679 199.692 91.7461 199.926 91.3712 200.161C89.6372 200.629 87.9969 199.504 87.1534 197.442Z" fill="#FFA4A4"/>
<path d="M95.4016 210.565L85.888 207.237C85.4194 207.097 84.857 207.284 84.7633 207.612L83.2636 213.189C83.1699 213.517 83.5448 213.798 84.0134 213.798H94.23C96.9013 213.845 97.7917 211.408 95.4016 210.565Z" fill="#FF0068"/>
<path d="M81.389 107.602L81.717 110.039C84.2477 129.301 85.3256 146.594 84.9976 161.544C84.5289 183.57 82.6075 194.302 81.5764 201.098C81.3421 202.644 82.42 204.003 83.826 204.003L93.2927 203.91C94.23 203.91 95.0267 203.113 95.2141 202.082C96.995 190.038 98.5884 177.993 100.135 161.825C101.775 144.579 101.822 129.113 101.869 116.647C101.869 114.21 101.869 111.867 101.916 109.758V107.602H81.389V107.602Z" fill="#B870FF"/>
<path d="M62.7836 197.349C62.2212 198.989 61.6588 200.582 61.0965 202.082C56.1288 215.439 62.7367 214.033 64.8457 208.174C65.9236 205.222 66.9546 202.269 67.9856 199.317C67.5638 199.598 67.142 199.832 66.7203 200.067C64.8925 200.535 63.346 199.411 62.7836 197.349Z" fill="#FFA4A4"/>
<path d="M70.0008 210.471L60.4872 207.143C60.0185 207.003 59.4561 207.19 59.3624 207.518L57.8627 213.095C57.769 213.423 58.1439 213.705 58.6126 213.705H68.7823C71.5473 213.705 72.3909 211.268 70.0008 210.471Z" fill="#FF0068"/>
<path d="M80.5454 109.524L79.7956 108.164L63.9084 107.79L63.7209 107.883C63.674 107.883 63.5803 107.883 63.5334 107.93C61.612 108.164 60.3935 110.039 60.9559 111.867L61.5651 113.788C73.8906 146.781 72.9064 146.875 66.4859 167.074C61.3308 183.195 59.2687 188.491 56.7849 200.535C56.41 202.316 57.7222 204.191 59.4093 204.285L66.9546 204.706C68.6886 204.8 70.1414 203.769 70.7506 202.035C80.4048 174.291 86.4504 165.668 86.6847 153.108C86.8722 137.83 84.9039 122.646 80.5454 109.524Z" fill="#B870FF"/>
<path d="M67.0951 205.222C67.0014 205.222 66.9545 205.222 66.8608 205.222C66.5796 205.222 66.3453 204.941 66.3453 204.66C66.3453 204.378 66.5796 204.097 66.9077 204.144C68.3605 204.238 69.6727 203.3 70.1882 201.848C73.6093 192.006 76.6087 184.554 78.9988 178.556C83.3573 167.683 85.9348 161.122 86.0754 153.108C86.2629 142.517 85.6068 133.565 84.154 125.692C84.1071 125.458 84.2008 125.223 84.4352 125.083L87.6688 123.396C87.9032 123.255 88.2312 123.349 88.3718 123.63C88.5124 123.911 88.4187 124.239 88.1375 124.38L85.2787 125.88C86.6847 133.706 87.2939 142.61 87.1533 153.108C87.0127 161.356 84.3883 167.964 79.983 178.931C77.5929 184.929 74.5935 192.381 71.2192 202.176C70.5163 204.05 68.9229 205.222 67.0951 205.222Z" fill="#9327FF"/>
<path d="M102.619 146.172C102.01 150.624 101.26 155.17 100.791 159.622C100.51 162.247 100.088 164.73 99.9006 167.355C99.3383 175.509 97.6043 183.476 95.9171 191.49C97.3231 176.025 101.26 161.028 99.432 145.61C98.8696 140.97 98.9633 136.096 98.9633 131.456C98.9633 126.536 100.979 114.632 102.338 109.945C104.447 118.943 103.837 136.986 102.619 146.172Z" fill="#B870FF"/>
<path d="M67.4232 60.362C67.4232 60.362 60.7684 43.3501 74.2186 40.9131L67.4232 60.362Z" fill="#000222"/>
<path d="M7.57665 34.4458L1.34361 33.696C0.921821 33.6491 0.593766 33.9303 0.546901 34.3521C0.500036 34.7739 0.781226 35.102 1.20301 35.1488L7.62351 35.8987V34.4458H7.57665Z" fill="#FFA4A4"/>
<path d="M54.301 8.90432C53.7855 10.3103 53.5043 11.8568 52.6139 13.0284C51.8172 14.0126 50.6924 14.6687 49.8489 15.606C49.0053 16.5433 48.5366 18.0899 49.3802 19.1209C49.7551 19.5895 50.3644 19.8239 50.7862 20.3394C51.9109 21.6985 50.6924 23.5731 50.2706 25.2133C49.7551 27.0411 50.3644 29.1969 51.7235 30.5559C52.7076 31.5401 54.1604 32.2899 54.3479 33.6959C54.4885 34.7738 53.7387 35.8985 54.1604 36.9296C54.8166 38.4293 57.1129 38.0075 58.3314 39.0854C59.175 39.8352 59.2687 41.1006 59.6436 42.1785C60.3466 44.1936 62.2681 45.6933 64.3301 45.8808C65.4549 45.9745 66.5797 45.7402 67.6576 46.162C68.9698 46.7244 69.7665 48.3646 71.1724 48.7395C74.0781 49.4894 74.781 46.0214 76.7494 44.1936C79.2332 41.8973 84.0603 42.2253 85.1851 38.9916C85.4662 38.2418 85.4662 37.3045 86.0755 36.789C86.6847 36.2266 87.622 36.3203 88.325 35.8517C89.5435 34.9612 89.028 32.8523 89.5904 31.4932C89.6841 31.3995 90.1059 30.6965 90.1996 30.6497C95.3079 23.245 96.1046 14.3407 91.4181 8.67C87.4346 3.84291 80.7329 2.43696 73.8437 4.21783C73.7969 4.17096 73.75 4.07723 73.7031 4.03037C72.2035 2.71815 70.3289 2.34323 68.4074 2.48382C64.8457 2.67128 63.7209 5.90497 60.8153 6.46735C59.6905 6.70167 58.5657 5.95183 57.3941 6.04556C55.8476 6.13929 54.8166 7.54524 54.301 8.90432Z" fill="#000222"/>
<path d="M99.8538 85.9037C98.6822 71.7036 101.119 62.6118 100.51 55.2071C100.51 55.2071 100.51 55.2071 100.557 55.1603C100.51 54.8791 100.51 54.5979 100.463 54.3167C100.416 53.8949 100.322 53.52 100.229 53.0982V53.0513C99.5726 50.755 98.401 47.5681 97.1825 45.4592C88.2781 34.7271 78.8583 37.0235 72.9533 40.7259L72.1566 42.8348C63.7209 48.4586 66.8608 61.3933 66.8608 61.3933C67.8919 67.6732 69.9071 70.7194 70.0945 77.7023C70.4694 90.9182 61.5651 94.5737 61.0027 109.102C61.0027 109.102 60.8621 109.242 60.6747 109.524C59.2218 111.492 59.4562 114.304 61.237 115.944C66.2985 120.677 71.5942 123.114 77.8272 121.193C87.0596 118.381 93.3396 120.396 99.9006 117.256C101.494 116.507 102.572 114.866 102.619 113.085C103.041 98.7916 101.307 103.478 99.8538 85.9037Z" fill="#C7FF17"/>
<path d="M80.9672 23.4796C81.7639 23.0578 82.5606 22.5892 82.9824 22.1674C84.3415 20.902 85.2788 19.168 86.6379 17.8558C88.2782 16.2624 92.2148 13.7317 97.8855 14.5752C98.4479 14.669 99.2446 14.8096 99.5726 14.2003C99.6663 14.0129 99.6663 13.7317 99.6195 13.4036C100.369 14.5752 100.838 15.9343 100.932 17.3403C101.119 17.0591 101.775 15.7937 101.494 13.2162C101.307 11.7165 99.3852 10.3105 98.8696 9.93561C98.5884 9.4201 98.3073 8.85772 97.9792 8.38907C97.698 7.92042 96.7607 6.98312 96.7607 6.98312C95.1673 5.48344 92.9178 4.68674 90.762 4.8742C88.2782 5.10852 88.3719 4.92106 86.4036 5.57717C84.3884 6.23328 82.7481 5.76463 79.6081 8.81085C78.2022 10.1699 77.6398 11.3884 77.3117 12.5132C77.5929 14.4815 77.1243 16.6842 75.6715 18.84C76.2807 17.9495 75.5309 19.168 75.5309 19.168C75.6246 20.3865 75.9995 21.1832 76.3276 21.6519C76.9368 22.5892 77.7335 23.3859 78.5771 24.1357C79.3269 24.8387 80.8266 25.5885 82.2326 26.4321C82.1857 26.2446 82.1857 26.104 82.1388 25.9166C81.4359 25.4011 80.9672 24.5106 80.9672 23.4796Z" fill="#000222"/>
<path d="M99.6195 13.4507C99.6664 13.7787 99.6664 14.1068 99.5726 14.2474C99.2446 14.8566 98.4479 14.716 97.8855 14.6223C92.2148 13.7787 88.2782 16.3094 86.6379 17.9029C85.2788 19.2151 84.3415 20.9022 82.9824 22.2144C82.5607 22.6362 81.764 23.1049 80.9673 23.5266C80.9673 24.5577 81.4359 25.4481 82.1389 25.9636C82.1389 26.1511 82.1857 26.3385 82.2326 26.4791C82.3732 27.1353 82.5607 27.7914 82.8419 28.4006L78.4834 41.9914C78.3897 42.3195 78.3897 42.6944 78.4365 43.0225H87.7158L90.762 33.5557C94.7456 33.5557 98.401 30.7907 99.2915 26.7603L100.838 19.918C101.025 19.0745 101.072 18.2309 101.025 17.4342C100.838 15.9814 100.369 14.6223 99.6195 13.4507ZM89.9653 18.3715C90.0122 18.0903 90.3403 17.856 90.6214 17.9497L92.6835 18.4184C92.9647 18.4652 93.199 18.7933 93.1053 19.0745C93.0584 19.3557 92.7304 19.59 92.4492 19.4963L90.3871 19.0276C90.0591 18.9339 89.8716 18.6527 89.9653 18.3715ZM92.496 19.9649L91.8868 20.3867C91.8868 20.5273 91.8868 20.6679 91.8868 20.8553C91.7931 21.3709 91.4181 21.7458 91.0432 21.6521C90.7152 21.5583 90.5277 21.0897 90.6214 20.5742C90.7152 20.0586 91.0901 19.6837 91.465 19.7775L92.496 19.9649ZM92.4492 29.1973C91.1838 28.6818 91.2775 28.0725 91.3713 27.4633L94.6987 28.5881C94.5112 30.0877 92.4492 29.1973 92.4492 29.1973ZM95.2611 26.3854L94.2769 26.4791C93.7145 26.526 93.3396 25.8699 93.5739 25.2607L93.6208 25.1669C93.7145 25.495 93.9957 25.7293 94.3238 25.6824L95.3079 25.5887C95.7297 25.5418 96.0578 25.2138 96.1984 24.8389L96.2452 25.0263C96.339 25.6824 95.8703 26.3385 95.2611 26.3854ZM99.2915 22.4488C99.1977 22.9643 98.8228 23.3392 98.4479 23.2455C98.1198 23.1517 97.9324 22.6831 98.0261 22.1676C98.1198 21.6521 98.4948 21.2771 98.8697 21.3709L99.9007 21.6052L99.2915 22.027C99.2915 22.1676 99.2915 22.3082 99.2915 22.4488ZM100.604 20.6679C100.557 20.9491 100.276 21.1834 100.041 21.1365L98.4479 20.7616C98.2136 20.7148 98.073 20.4336 98.1198 20.1055C98.1667 19.8243 98.4479 19.59 98.6822 19.6369L100.276 19.9649C100.51 20.0586 100.651 20.3867 100.604 20.6679Z" fill="#FFA4A4"/>
<path d="M91.3712 27.5098C91.2775 28.119 91.2306 28.7283 92.4491 29.2438C92.4491 29.2438 94.5112 30.0873 94.6518 28.6345L91.3712 27.5098Z" fill="white"/>
<path d="M90.3871 19.0275L92.4491 19.4961C92.7303 19.543 93.0584 19.3555 93.1052 19.0743C93.1521 18.7931 92.9647 18.4651 92.6835 18.4182L90.6214 17.9496C90.3402 17.9027 90.0122 18.0902 89.9653 18.3713C89.8716 18.6525 90.059 18.9337 90.3871 19.0275Z" fill="#000222"/>
<path d="M100.276 20.0115L98.6822 19.6834C98.4479 19.6365 98.2135 19.824 98.1198 20.152C98.073 20.4332 98.2135 20.7613 98.4479 20.8082L100.041 21.1831C100.276 21.2299 100.51 21.0425 100.604 20.7144C100.651 20.3864 100.51 20.0583 100.276 20.0115Z" fill="#000222"/>
<path d="M96.1983 24.8389C96.0577 25.2607 95.7297 25.5887 95.3079 25.5887L94.3237 25.6824C93.9957 25.7293 93.7145 25.495 93.6207 25.1669L93.5739 25.2607C93.3395 25.8699 93.7145 26.526 94.2768 26.4791L95.261 26.3854C95.8702 26.3385 96.292 25.6824 96.1983 25.0263V24.8389Z" fill="#FF7878"/>
<path d="M90.5745 20.5741C90.4808 21.0896 90.6214 21.6051 90.9963 21.652C91.3244 21.7457 91.6993 21.3708 91.8399 20.8553C91.8867 20.7147 91.8867 20.5272 91.8399 20.3866L92.4491 19.9648L91.4181 19.7305C91.09 19.6837 90.7151 20.0586 90.5745 20.5741Z" fill="#000222"/>
<path d="M98.8696 21.3704C98.5416 21.2766 98.1666 21.6516 98.026 22.1671C97.9323 22.6826 98.0729 23.1981 98.4478 23.245C98.7759 23.3387 99.1508 22.9638 99.2914 22.4483C99.3383 22.3077 99.3383 22.1202 99.2914 21.9796L99.9006 21.5578L98.8696 21.3704Z" fill="#000222"/>
<path d="M43.1003 45.8811C32.3682 45.8811 21.4018 43.116 11.3259 37.914C11.0915 37.8203 10.9041 37.7266 10.6698 37.7266C9.68559 37.7266 8.6077 38.8513 8.23278 40.2573C8.09218 40.7728 7.90472 41.9913 8.84202 42.5537C21.683 50.0989 43.194 53.895 55.5195 53.7075L55.8944 44.9906C55.8007 44.9906 47.8337 45.6936 47.6931 45.6936C46.1934 45.8342 44.6469 45.8811 43.1003 45.8811Z" fill="#FFA4A4"/>
<path d="M76.14 39.2261C68.4073 42.038 61.4713 43.772 56.2224 44.2875C55.2383 44.3812 54.4884 45.1779 54.4884 46.1621L54.3947 57.6909C54.3947 58.8625 55.2851 59.8935 56.4568 59.9873C64.2364 60.5965 70.0945 58.5813 71.9222 58.347L74.9684 51.2704L76.14 39.2261Z" fill="#C7FF17"/>
<path d="M10.4823 43.6316C9.45123 43.5379 8.51393 43.0224 7.6235 42.5069C6.49874 41.8508 4.8116 40.726 4.38982 40.1636C3.12446 38.3359 4.20236 36.227 4.20236 36.1332C4.53041 35.0553 5.65517 34.3524 6.73306 34.3524C7.81096 34.3055 8.79512 34.7741 9.73242 35.3365C11.6539 36.5081 13.4816 38.3359 13.5753 40.6791C13.5753 41.2415 13.4816 41.8508 13.2004 42.3663C12.6381 43.3036 11.5133 43.7253 10.4823 43.6316Z" fill="#FFA4A4"/>
<path d="M92.6365 44.3811C91.6992 41.3349 87.7157 38.8979 83.7322 38.8979C79.7487 38.8979 77.2648 41.3349 78.2021 44.3811C79.1394 47.4274 83.1229 49.8643 87.1065 49.8643C91.0431 49.8643 93.527 47.3805 92.6365 44.3811Z" fill="#FFA4A4"/>
<path d="M127.364 52.0205C120.849 59.8938 116.631 64.5803 111.195 69.9229C110.773 70.3447 110.024 70.251 109.742 69.6886C107.68 66.2206 105.993 64.4397 104.868 60.5968C101.26 62.94 98.9634 63.9711 95.2142 64.2991L106.274 79.8114C107.024 81.4048 109.414 82.2015 111.195 80.3269C120.756 71.2351 124.177 63.0806 129.894 53.8951C127.785 53.5671 128.816 53.3796 127.364 52.0205Z" fill="#FFA4A4"/>
<path d="M126.848 49.6775C127.082 48.8808 127.41 48.1309 127.926 47.4748C128.16 47.1936 128.629 47.3342 128.582 47.7091C128.535 48.1309 128.348 49.2557 128.723 49.49C128.91 49.5837 129.144 49.3963 129.238 49.1619C129.707 48.2715 130.175 47.3342 130.597 46.3969C130.878 45.7877 131.066 45.6471 131.769 45.6002C132.847 45.5065 133.55 45.6002 134.065 46.9124C134.534 48.0841 134.768 49.9118 134.44 50.9428C133.831 52.9111 130.269 55.0669 128.254 55.0669C127.223 55.0669 125.77 54.364 126.145 53.0986C126.895 50.8022 126.473 51.1303 126.848 49.6775Z" fill="#FFA4A4"/>
<path d="M97.0419 45.3188L106.977 62.0028C106.977 62.0028 107.258 68.4701 98.0729 70.6728C98.026 70.6728 89.028 54.7387 97.0419 45.3188Z" fill="#C7FF17"/>
<path d="M102.853 113.32H102.291C102.525 105.212 102.103 103.056 101.4 99.7287C100.791 96.6825 100.135 93.5894 99.5257 85.6223C98.8227 77.1398 99.3851 70.3443 99.8538 64.908C99.9944 62.9397 100.182 61.1119 100.229 59.4248L100.791 59.4717C100.697 61.2057 100.557 63.0334 100.416 65.0017C99.9944 70.4381 99.432 77.1866 100.088 85.6223C100.744 93.5425 101.4 96.9168 101.963 99.6818C102.666 102.962 103.087 105.165 102.853 113.32Z" fill="#C7FF17"/>
<path d="M147.609 86.2315L156.326 70.2037L145.922 65.939L142.267 78.9206L147.609 86.2315Z" fill="#FFA4A4"/>
<path d="M164.106 133.893C162.84 135.862 160.966 138.111 159.888 140.173C157.873 144.11 156.888 148.562 156.748 153.014C156.701 155.029 156.795 157.044 157.263 159.013C158.341 163.559 161.716 168.714 160.591 173.26C158.763 167.87 156.514 161.731 155.67 156.107C154.826 150.483 155.014 144.578 157.217 139.283C160.403 131.503 167.667 125.598 169.636 117.397C169.823 116.647 170.901 110.32 172.354 110.882C173.291 111.257 172.776 115.382 172.541 116.038C170.292 122.458 167.667 128.269 164.106 133.893Z" fill="#2200FF"/>
<path d="M147.562 114.257C146.297 116.412 144.797 118.428 143.954 120.771C142.923 123.677 142.97 126.863 141.892 129.769C141.423 130.987 140.814 132.112 140.345 133.331C139.783 134.877 139.548 136.564 139.267 138.205C138.986 140.126 138.705 142.048 138.424 143.969C138.142 145.797 137.861 147.671 137.908 149.546C137.955 152.545 138.752 155.498 139.689 158.357C140.814 161.778 142.079 165.105 143.532 168.386C141.939 159.013 142.735 149.359 144.891 140.126C147.047 130.894 150.515 121.989 154.405 113.319C154.873 112.288 155.342 111.21 155.483 110.086C155.576 108.961 155.295 107.696 154.405 106.993C153.186 106.008 150.468 106.008 149.765 107.555C149.343 108.445 149.484 109.758 149.203 110.742C148.781 112.007 148.218 113.132 147.562 114.257Z" fill="#2200FF"/>
<path d="M157.31 164.168L146.391 165.668C147.234 168.151 155.904 194.162 160.216 204.941L167.527 204.753C165.184 195.286 157.638 165.715 157.31 164.168Z" fill="#FFA4A4"/>
<path d="M167.527 204.753L160.216 204.941C161.247 207.518 162.419 209.206 162.653 209.534C165.652 214.126 169.214 213.236 168.23 207.612C168.183 207.378 167.902 206.347 167.527 204.753Z" fill="#C6FF8C"/>
<path d="M168.323 208.127L163.496 208.596L157.17 210.986C154.639 211.783 155.529 214.173 158.341 214.22L169.073 214.407C169.589 214.407 169.964 214.126 169.917 213.798L168.464 208.268C168.417 208.268 168.37 208.174 168.323 208.127Z" fill="#000222"/>
<path d="M152.014 106.712C149.812 110.321 147.797 116.554 144.141 124.755C134.956 145.469 137.861 153.764 143.438 168.995C145.969 175.931 146.25 176.353 148.453 176.634C155.623 177.525 156.842 174.572 159.7 174.01C161.387 173.682 161.059 172.042 159.091 166.84C158.06 164.121 157.076 160.982 156.514 159.107C152.952 146.875 164.106 130.379 173.338 112.711C173.338 112.664 156.185 110.274 152.014 106.712Z" fill="#2200FF"/>
<path d="M170.807 129.863C170.995 133.472 172.12 136.94 172.448 140.548C172.963 145.563 172.026 150.624 172.588 155.592C172.823 157.513 173.244 159.388 173.385 161.309C173.525 163.278 173.432 165.246 173.807 167.214C174.228 169.136 175.26 171.057 177.04 171.901C177.368 164.402 177.087 156.904 176.197 149.453C175.634 144.625 174.791 139.845 174.697 134.971C174.603 130.097 175.353 125.13 177.696 120.865C178.446 119.459 179.43 118.1 179.571 116.506C179.712 114.679 178.212 111.211 176.478 110.32C174.838 109.524 171.745 109.289 171.135 110.93C170.292 113.226 171.042 117.022 171.276 120.584C171.463 123.677 170.667 126.723 170.807 129.863Z" fill="#2200FF"/>
<path d="M190.397 204.613C190.678 207.378 190.725 209.346 191.053 211.736H184.258C184.117 210.893 183.695 208.268 182.992 204.613H190.397Z" fill="#C6FF8C"/>
<path d="M176.853 165.012C180.79 165.996 182.992 166.136 187.163 165.152C187.491 177.384 188.335 189.288 189.788 199.364C190.069 201.426 190.256 203.113 190.397 204.613H182.992C180.977 193.74 177.743 173.869 176.853 165.012Z" fill="#FFA4A4"/>
<path d="M172.541 108.211C195.833 108.211 193.443 108.164 196.677 108.352C196.208 113.694 191.662 123.067 192.74 139.47C193.256 147.578 191.287 157.466 191.569 169.37C191.615 170.917 190.631 172.276 189.225 172.557C184.867 173.4 181.914 173.4 177.275 172.416C175.962 172.135 174.978 170.917 174.838 169.511C173.385 154.936 171.838 122.739 172.541 108.211Z" fill="#2200FF"/>
<path d="M152.483 42.9753C162.278 41.9912 159.372 60.6903 151.733 71.0475L141.236 65.5643C139.689 64.7676 139.127 62.8461 139.83 61.2527C144.797 49.5364 152.483 42.9753 152.483 42.9753Z" fill="#9CFFFF"/>
<path d="M215.001 68.0948C216.735 71.0005 218.422 73.9998 219.125 77.3272C220.437 83.4197 218.188 89.7933 214.86 95.0422C210.783 101.416 204.55 106.993 197.052 107.836C195.224 108.024 193.349 107.977 191.709 107.133C189.085 105.774 187.726 102.822 186.835 99.963C182.664 86.8408 183.789 72.1721 189.694 59.7529C191.85 55.207 195.833 46.1152 202.113 49.2551C207.596 51.9264 211.955 62.9866 215.001 68.0948Z" fill="#FF0068"/>
<path d="M196.161 40.4915C192.787 38.1483 173.057 36.1331 168.98 36.7892C159.982 38.2888 154.686 41.9443 153.233 49.6302C148.359 75.4528 155.67 83.9353 149.906 103.759C149.343 105.681 149.296 107.79 149.906 109.711C150.234 110.742 150.609 111.679 151.03 112.101C152.015 112.992 153.42 113.085 154.733 113.085C166.074 113.367 178.54 113.601 190.163 113.882C193.396 113.976 196.208 111.82 197.052 108.68C200.801 94.6205 189.553 101.088 196.724 63.5959C196.677 55.1134 201.082 47.5212 196.161 40.4915Z" fill="#9CFFFF"/>
<path d="M206.893 100.619C180.649 67.3449 188.429 39.0853 188.522 38.8041C188.663 38.2417 188.382 37.6325 187.819 37.445C187.304 37.2576 186.741 37.5388 186.554 38.1012C186.46 38.3823 184.398 45.5995 185.71 57.1283C186.882 67.7198 191.24 84.0757 205.347 101.931C205.441 102.072 205.581 102.166 205.722 102.259C206.05 102.4 206.472 102.4 206.753 102.119C207.221 101.744 207.268 101.088 206.893 100.619Z" fill="#FF0068"/>
<path d="M138.33 61.5807C142.36 69.6415 141.751 67.1108 144.235 71.6567C154.077 85.2475 144.891 100.572 133.737 66.2204C130.597 56.7068 133.878 52.6764 138.33 61.5807Z" fill="#FFA4A4"/>
<path d="M151.827 59.1905C152.061 58.4406 151.921 57.597 151.733 56.7535C151.499 55.7225 151.171 54.6914 150.843 53.6135C149.437 52.3482 149.765 52.3013 147.609 51.7858C146.672 51.5515 145.781 52.067 145.453 52.77C145.125 53.4729 145.219 54.3634 145.406 55.2538C145.781 57.0347 146.766 59.0499 148.593 60.0809C149.062 60.3152 149.577 60.5027 150.046 60.5495C150.937 60.5495 151.593 59.9403 151.827 59.1905Z" fill="#FFA4A4"/>
<path d="M189.085 43.3034C189.647 48.2711 194.521 61.0184 195.458 67.4389C195.693 68.8917 195.88 76.7181 196.068 78.3115L205.159 84.404C207.643 86.466 210.174 80.6079 210.221 77.4211C210.268 74.7029 207.69 58.5345 205.769 51.7391C203.191 42.413 187.96 33.7898 189.085 43.3034Z" fill="#9CFFFF"/>
<path d="M175.166 44.7561C178.945 44.7561 182.008 42.9516 182.008 40.7257C182.008 38.4998 178.945 36.6953 175.166 36.6953C171.387 36.6953 168.323 38.4998 168.323 40.7257C168.323 42.9516 171.387 44.7561 175.166 44.7561Z" fill="#FFA4A4"/>
<path d="M190.678 208.127L185.851 208.596L179.524 210.986C176.994 211.783 177.884 214.173 180.696 214.22L191.428 214.407C191.943 214.407 192.318 214.126 192.272 213.798L190.819 208.268C190.819 208.268 190.725 208.174 190.678 208.127Z" fill="#000222"/>
<path d="M182.945 17.059C183.367 15.4188 184.398 13.6379 183.742 12.0914C183.508 11.5758 183.086 11.1541 182.898 10.5917C182.711 10.1699 182.711 9.65437 182.617 9.18572C182.055 6.32696 179.29 5.62398 177.322 4.31177C175.494 3.09328 174.463 0.750027 172.213 0.234513C172.073 0.140783 171.932 0.0470528 171.745 0.0470528C171.557 0.0470528 171.417 0.0939178 171.276 0.140783C170.714 0.140783 170.151 0.281378 169.589 0.515703C169.261 0.375108 169.026 0.0939178 168.698 0.000187826C167.62 -0.327867 166.824 1.12495 165.699 1.31241C164.949 1.40614 164.199 0.937487 163.449 1.12495C162.7 1.31241 162.278 2.15598 162.09 2.95268C161.903 3.74939 161.715 4.59296 161.106 5.10847C160.731 5.43652 160.263 5.53025 159.841 5.81144C158.857 6.46755 158.576 7.77977 158.435 8.9514C158.294 10.4511 158.294 11.9508 158.388 13.4036C158.435 13.966 158.435 14.3409 158.904 14.6689C159.091 14.8095 159.279 14.8564 159.466 14.9032C159.513 13.0287 160.122 11.2478 161.153 9.79497C163.403 11.2478 168.183 13.8722 174.182 14.5283L173.525 17.5277C172.869 20.6208 172.635 21.2769 169.683 22.2142C166.074 23.3858 160.638 23.0109 160.638 23.0109L160.872 29.1033C161.294 30.7905 163.215 32.5245 164.949 32.4307C166.074 32.3839 168.136 32.3839 169.964 32.1496C171.135 31.9621 172.213 31.6809 172.869 31.2123C173.76 30.5562 175.4 29.0096 176.103 28.1192C177.462 26.3383 177.79 23.8545 177.509 21.6049L176.947 14.7627L177.322 14.9501L177.462 17.2934C177.509 17.2934 177.603 17.2465 177.65 17.2465C178.962 17.1528 180.087 18.4181 180.18 19.9647C180.227 20.902 179.899 21.7455 179.384 22.3079L179.758 26.1977C180.133 25.9165 180.696 25.9165 181.118 25.6822C182.149 25.0261 181.633 23.2921 182.289 22.2611C182.758 21.5581 183.133 20.7145 183.508 20.0115C183.929 19.2617 184.117 18.8868 183.648 18.1369C183.367 17.8557 183.133 17.4808 182.945 17.059ZM168.277 25.0729C168.23 25.6822 167.949 26.3852 166.543 26.7132C166.543 26.7132 164.481 27.0413 164.574 25.6353L168.277 25.0729Z" fill="#000222"/>
<path d="M180.18 20.0585C180.087 18.465 178.962 17.2466 177.65 17.3403C177.603 17.3403 177.509 17.3872 177.462 17.3872L177.322 15.0439L176.947 14.8564L177.509 21.6987C177.79 23.9482 177.462 26.4321 176.103 28.213C175.447 29.1034 173.76 30.6499 172.869 31.3061C172.213 31.7747 171.135 32.0559 169.964 32.2434L170.901 41.6632L181.164 41.2414L179.665 26.3384L179.29 22.4486C179.899 21.8393 180.227 20.9958 180.18 20.0585Z" fill="#FFA4A4"/>
<path d="M169.729 22.261C172.682 21.2768 172.916 20.6207 173.572 17.5745L174.228 14.5752C168.23 13.919 163.449 11.2946 161.2 9.8418C160.169 11.2946 159.56 13.0286 159.513 14.9501C159.513 15.0907 159.513 15.2313 159.513 15.325C159.56 15.325 161.575 15.2313 161.575 15.2313C161.856 15.2313 162.137 15.4656 162.137 15.7468C162.137 16.028 161.903 16.3092 161.622 16.3092L159.607 16.4029L160.684 23.0577C160.684 23.0577 166.121 23.4795 169.729 22.261ZM168.651 17.5277C168.605 17.0121 168.886 16.5435 169.214 16.5435C169.542 16.5435 169.87 16.9653 169.87 17.4808C169.917 17.9963 169.636 18.465 169.308 18.465C168.98 18.465 168.651 18.0432 168.651 17.5277ZM167.48 14.9032L169.495 14.8095C169.776 14.8095 170.057 15.0438 170.057 15.325C170.057 15.6062 169.823 15.8874 169.542 15.8874L167.527 15.9811C167.246 15.9811 166.964 15.7468 166.964 15.4656C166.964 15.1844 167.199 14.9032 167.48 14.9032ZM164.574 21.4174L165.652 21.6518C166.027 21.7455 166.355 21.558 166.543 21.2768L166.589 21.3706C166.777 21.9798 166.215 22.5422 165.605 22.4016L164.527 22.1673C163.871 22.0267 163.543 21.3237 163.731 20.7145L163.778 20.527C163.871 20.9488 164.152 21.3237 164.574 21.4174ZM161.715 18.6993C161.387 18.6993 161.059 18.2775 161.059 17.762C161.013 17.2465 161.294 16.7778 161.622 16.7778C161.95 16.7778 162.278 17.1996 162.278 17.7151C162.325 18.2306 162.044 18.6993 161.715 18.6993Z" fill="#FFA4A4"/>
<path d="M167.574 15.9812L169.589 15.8875C169.87 15.8875 170.104 15.6063 170.104 15.3251C170.104 15.0439 169.823 14.8096 169.542 14.8096L167.527 14.9033C167.246 14.9033 167.011 15.1845 167.011 15.4657C167.011 15.7937 167.246 16.0281 167.574 15.9812Z" fill="#000222"/>
<path d="M162.137 15.747C162.137 15.4658 161.856 15.2314 161.575 15.2314L159.56 15.3252C159.232 15.372 159.044 15.6064 159.044 15.8876C159.044 16.1687 159.325 16.4031 159.607 16.4031L161.622 16.3093C161.903 16.2625 162.137 16.0281 162.137 15.747Z" fill="#000222"/>
<path d="M161.622 16.778C161.294 16.778 161.013 17.2466 161.059 17.7621C161.106 18.2777 161.387 18.6994 161.716 18.6994C162.044 18.6994 162.325 18.2308 162.278 17.7153C162.231 17.1529 161.95 16.7311 161.622 16.778Z" fill="#000222"/>
<path d="M169.87 17.4339C169.823 16.9184 169.542 16.4966 169.214 16.4966C168.886 16.4966 168.605 16.9652 168.651 17.4807C168.698 17.9963 168.98 18.418 169.308 18.418C169.636 18.418 169.917 17.9963 169.87 17.4339Z" fill="#000222"/>
<path d="M164.481 22.1671L165.558 22.4015C166.168 22.5421 166.73 21.9797 166.543 21.3704L166.496 21.2767C166.308 21.5579 165.98 21.7453 165.605 21.6516L164.527 21.4173C164.106 21.3236 163.778 20.9486 163.731 20.5269L163.684 20.7143C163.496 21.3704 163.871 22.0265 164.481 22.1671Z" fill="#FF7878"/>
<path d="M166.543 26.6662C167.949 26.385 168.23 25.6351 168.277 25.0259L164.574 25.5883C164.481 27.0411 166.543 26.6662 166.543 26.6662Z" fill="white"/>
<path d="M172.916 70.7661H155.904C154.077 70.7661 152.624 72.2189 152.624 74.0467V85.388C152.624 87.2157 154.077 88.6685 155.904 88.6685H172.916C174.744 88.6685 176.197 87.2157 176.197 85.388V74.0467C176.15 72.2189 174.697 70.7661 172.916 70.7661ZM168.417 80.5609C168.417 82.951 166.449 84.9193 164.059 84.9193H158.388C155.998 84.9193 154.03 82.951 154.03 80.5609V78.8269C154.03 76.4368 155.998 74.4684 158.388 74.4684H164.059C166.449 74.4684 168.417 76.4368 168.417 78.8269V80.5609Z" fill="#070059"/>
<path d="M164.059 74.4219H158.388C155.998 74.4219 154.03 76.3902 154.03 78.7803V80.5143C154.03 82.9044 155.998 84.8728 158.388 84.8728H164.059C166.449 84.8728 168.417 82.9044 168.417 80.5143V78.7803C168.417 76.3902 166.449 74.4219 164.059 74.4219ZM159.466 83.7949C157.17 83.7949 155.248 81.9203 155.248 79.577C155.248 77.2806 157.123 75.3592 159.466 75.3592C161.762 75.3592 163.684 77.2338 163.684 79.577C163.637 81.9203 161.762 83.7949 159.466 83.7949Z" fill="#1A0A7E"/>
<path d="M160.638 83.7946H147.422C145.641 83.7946 144.141 82.3418 144.141 80.514V78.6394C144.141 76.8586 145.594 75.3589 147.422 75.3589H160.638C162.419 75.3589 163.918 76.8117 163.918 78.6394V80.514C163.871 82.3418 162.419 83.7946 160.638 83.7946Z" fill="#0D0063"/>
<path d="M154.03 73.0625C150.421 73.0625 147.515 75.9681 147.515 79.5767C147.515 83.1853 150.421 86.091 154.03 86.091C157.638 86.091 160.544 83.1853 160.544 79.5767C160.544 76.015 157.638 73.0625 154.03 73.0625Z" fill="#1A0A7E"/>
<path d="M154.873 73.0625H148.687V74.2341H154.873V73.0625Z" fill="#1A0A7E"/>
<path d="M154.873 84.9663H148.687V86.1379H154.873V84.9663Z" fill="#1A0A7E"/>
<path d="M149.249 74.1401C146.156 74.1401 143.672 76.624 143.672 79.7171C143.672 82.8102 146.156 85.294 149.249 85.294C152.343 85.294 154.826 82.8102 154.826 79.7171C154.826 76.624 152.343 74.1401 149.249 74.1401Z" fill="#E4E0FF"/>
<path d="M149.249 73.0625C145.641 73.0625 142.735 75.9681 142.735 79.5767C142.735 83.1853 145.641 86.091 149.249 86.091C152.858 86.091 155.764 83.1853 155.764 79.5767C155.764 76.015 152.858 73.0625 149.249 73.0625ZM149.249 85.3411C146.156 85.3411 143.673 82.8573 143.673 79.7642C143.673 76.6711 146.156 74.1873 149.249 74.1873C152.343 74.1873 154.826 76.6711 154.826 79.7642C154.826 82.8573 152.343 85.3411 149.249 85.3411Z" fill="#1A0A7E"/>
<path d="M166.168 71.2818H161.153C160.684 71.2818 160.31 70.9068 160.31 70.4382V69.9227C160.31 69.454 160.684 69.0791 161.153 69.0791H166.168C166.636 69.0791 167.011 69.454 167.011 69.9227V70.4382C167.058 70.86 166.636 71.2818 166.168 71.2818Z" fill="#070059"/>
<path d="M176.056 77.3741C175.822 77.3741 175.634 77.1866 175.681 76.9523C176.665 63.0334 183.976 37.9606 184.023 37.6794C184.07 37.492 184.304 37.3514 184.492 37.3982C184.679 37.4451 184.82 37.6794 184.773 37.8669C184.679 38.1012 177.415 63.1271 176.431 76.9523C176.431 77.2335 176.244 77.3741 176.056 77.3741Z" fill="#000222"/>
<path d="M153.28 73.0628C153.233 73.0628 153.233 73.0628 153.186 73.0628C152.999 73.016 152.858 72.8285 152.905 72.5942C155.764 58.3472 164.387 37.8672 164.481 37.6329C164.574 37.4455 164.809 37.3517 164.996 37.4455C165.184 37.5392 165.277 37.7735 165.184 37.961C165.09 38.1484 156.467 58.6284 153.655 72.7817C153.608 72.9222 153.467 73.0628 153.28 73.0628Z" fill="#000222"/>
<path d="M137.299 59.753H161.434C163.871 59.753 165.652 59.2844 166.308 57.2692L171.276 43.2565C171.932 41.2413 170.479 39.6011 168.042 39.6011H143.766C141.329 39.6011 140.392 40.3041 139.736 42.3192L135.143 56.0975C134.44 58.1127 134.862 59.753 137.299 59.753Z" fill="#B061FF"/>
<path d="M167.433 59.5656C167.48 59.425 167.574 58.1597 168.933 58.1597C170.807 58.1597 173.76 59.7062 176.431 60.831C179.196 62.0026 182.805 63.7366 186.648 65.5643C191.053 67.6733 195.552 69.829 199.489 71.5162C201.691 72.4535 203.472 74.1875 204.456 76.3433C205.019 77.5618 205.628 78.874 206.144 80.0925C206.753 81.4984 205.534 82.9512 204.035 82.6232C194.849 80.7017 176.291 67.767 171.089 63.8303C167.761 61.3933 167.339 59.8937 167.433 59.5656Z" fill="#FFA4A4"/>
<path d="M171.698 58.1128C171.463 57.1755 170.901 56.3788 170.339 55.6758C169.589 54.7854 168.792 53.9418 167.949 53.1451H167.902C165.887 52.4421 164.481 53.7544 164.434 53.8012C163.543 54.3167 163.121 55.4884 163.262 56.5194C163.403 57.5504 163.965 58.394 164.527 59.097C165.793 60.6435 167.621 62.0026 169.636 61.5808C170.151 61.4871 170.62 61.2528 171.042 60.8778C171.745 60.2217 171.932 59.0501 171.698 58.1128Z" fill="#FFA4A4"/>
<path d="M132.8 58.0657C132.8 58.0657 133.409 54.2696 135.752 52.4888C136.315 52.067 137.065 52.1607 137.533 52.6762C138.752 53.9885 140.673 56.7535 137.908 58.4406C137.908 58.4406 135.377 59.2842 136.268 61.2525L132.8 58.0657Z" fill="#FFA4A4"/>
</g>
<defs>
<clipPath id="clip0">
<rect width="219" height="214.454" fill="white" transform="translate(0.5)"/>
</clipPath>
</defs>
</svg>
